<?xml version="1.0" encoding="UTF-8" standalone="no"?>
<!-- Created with Inkscape (http://www.inkscape.org/) -->

<svg
   xmlns:ns0="http://www.iki.fi/pav/software/textext/"
   xmlns:dc="http://purl.org/dc/elements/1.1/"
   xmlns:cc="http://creativecommons.org/ns#"
   xmlns:rdf="http://www.w3.org/1999/02/22-rdf-syntax-ns#"
   xmlns:svg="http://www.w3.org/2000/svg"
   xmlns="http://www.w3.org/2000/svg"
   xmlns:sodipodi="http://sodipodi.sourceforge.net/DTD/sodipodi-0.dtd"
   xmlns:inkscape="http://www.inkscape.org/namespaces/inkscape"
   width="4.2301784in"
   height="0.49150079in"
   viewBox="0 0 380.71606 44.235072"
   id="svg2"
   version="1.1"
   inkscape:version="0.91 r"
   sodipodi:docname="streams.svg">
  <sodipodi:namedview
     id="base"
     pagecolor="#ffffff"
     bordercolor="#666666"
     borderopacity="1.0"
     inkscape:pageopacity="0.0"
     inkscape:pageshadow="2"
     inkscape:zoom="1.979899"
     inkscape:cx="231.50767"
     inkscape:cy="-32.76628"
     inkscape:document-units="px"
     inkscape:current-layer="layer1"
     showgrid="false"
     inkscape:window-width="1680"
     inkscape:window-height="995"
     inkscape:window-x="-2"
     inkscape:window-y="-3"
     inkscape:window-maximized="1"
     fit-margin-top="0"
     fit-margin-left="0"
     fit-margin-right="0"
     fit-margin-bottom="0"
     units="in" />
  <defs
     id="defs4" />
  <metadata
     id="metadata7">
    <rdf:RDF>
      <cc:Work
         rdf:about="">
        <dc:format>image/svg+xml</dc:format>
        <dc:type
           rdf:resource="http://purl.org/dc/dcmitype/StillImage" />
        <dc:title></dc:title>
      </cc:Work>
    </rdf:RDF>
  </metadata>
  <g
     id="layer1"
     inkscape:groupmode="layer"
     inkscape:label="Layer 1"
     transform="translate(-168.47143,-109.27747)">
    <g
       id="g4300"
       transform="translate(-39.53428,-20.643169)">
      <path
         id="path4142"
         d="m 211.04571,169.16571 0,-0.03 0.01,-0.03 0.01,-0.03 0.01,-0.04 0.01,-0.04 0.01,-0.04 0.01,-0.04 0.02,-0.05 0.01,-0.04 0.02,-0.05 0.02,-0.05 0.02,-0.05 0.02,-0.05 0.03,-0.05 0.02,-0.05 0.03,-0.05 0.03,-0.05 0.03,-0.04 0.03,-0.05 0.04,-0.04 0.04,-0.05 0.04,-0.04 0.04,-0.04 0.04,-0.03 0.05,-0.03 0.05,-0.03 0.02,-0.01 0.03,-0.02 0.02,-0.01 0.03,-0.01 0.03,-0.01 0.03,0 0.03,-0.01 0.02,-0.01 0.04,0 0.03,0 0.03,-0.01 0.03,0 c 0.05,0 0.29,0 0.5,0.13 -0.28,0.05 -0.48,0.3 -0.48,0.54 0,0.16 0.11,0.35 0.38,0.35 0.22,0 0.54,-0.18 0.54,-0.58 0,-0.52 -0.59,-0.66 -0.93,-0.66 -0.58,0 -0.93,0.53 -1.04,0.76 -0.25,-0.66 -0.79,-0.76 -1.08,-0.76 -1.03,0 -1.6,1.29 -1.6,1.53 0,0.1 0.1,0.1 0.12,0.1 0.08,0 0.11,-0.02 0.13,-0.11 0.34,-1.05 0.99,-1.3 1.33,-1.3 0.19,0 0.54,0.09 0.54,0.67 0,0.31 -0.17,0.97 -0.54,2.36 -0.16,0.62 -0.51,1.04 -0.94,1.04 -0.06,0 -0.29,0 -0.5,-0.13 0.25,-0.05 0.47,-0.26 0.47,-0.54 0,-0.27 -0.22,-0.35 -0.37,-0.35 -0.3,0 -0.55,0.26 -0.55,0.58 0,0.46 0.5,0.65 0.94,0.65 0.65,0 1.01,-0.69 1.04,-0.75 0.12,0.37 0.48,0.75 1.07,0.75 1.03,0 1.6,-1.28 1.6,-1.53 0,-0.1 -0.09,-0.1 -0.12,-0.1 -0.09,0 -0.11,0.05 -0.13,0.11 -0.33,1.07 -1.01,1.31 -1.33,1.31 -0.38,0 -0.54,-0.32 -0.54,-0.66 0,-0.22 0.06,-0.44 0.17,-0.87 z"
         inkscape:connector-curvature="0"
         style="font-style:normal;font-variant:normal;font-weight:normal;font-stretch:normal;letter-spacing:normal;word-spacing:normal;text-anchor:start;fill:#000000;fill-opacity:1;fill-rule:evenodd;stroke:#000000;stroke-width:0;stroke-linecap:butt;stroke-linejoin:miter;stroke-miterlimit:10.43299961;stroke-dasharray:none;stroke-dashoffset:0;stroke-opacity:1" />
      <path
         id="path4144"
         d="m 215.74571,169.23571 0,-0.01 0,-0.01 0,-0.01 0,-0.01 0,0 0,-0.01 0,-0.01 0,-0.01 0,0 0,-0.01 0,-0.01 0,0 0,-0.01 0,0 -0.01,-0.01 0,0 0,-0.01 0,0 0,-0.01 0,-0.01 -0.01,-0.01 0,0 0,-0.01 -0.01,-0.01 0,0 -0.01,-0.01 0,0 -0.01,0 -0.01,-0.01 -0.01,0 -0.01,0 0,0 -0.01,0 -0.01,0 0,0 -0.01,-0.01 0,0 -0.01,0 0,0 -0.01,0 -0.01,0 -0.01,0 0,0 -0.01,0 -0.01,0 -0.01,0 0,0 -0.01,0 -0.01,0 -0.01,0 c -0.45,0.44 -1.08,0.45 -1.37,0.45 l 0,0.25 c 0.17,0 0.63,0 1.02,-0.2 l 0,3.55 c 0,0.23 0,0.32 -0.7,0.32 l -0.27,0 0,0.25 c 0.13,-0.01 0.99,-0.03 1.24,-0.03 0.22,0 1.1,0.02 1.25,0.03 l 0,-0.25 -0.26,0 c -0.7,0 -0.7,-0.09 -0.7,-0.32 z"
         inkscape:connector-curvature="0"
         style="font-style:normal;font-variant:normal;font-weight:normal;font-stretch:normal;letter-spacing:normal;word-spacing:normal;text-anchor:start;fill:#000000;fill-opacity:1;fill-rule:evenodd;stroke:#000000;stroke-width:0;stroke-linecap:butt;stroke-linejoin:miter;stroke-miterlimit:10.43299961;stroke-dasharray:none;stroke-dashoffset:0;stroke-opacity:1" />
    </g>
    <g
       id="g4296"
       transform="translate(-31.92107,-20.643169)">
      <path
         id="path4146"
         d="m 224.52571,169.16571 0.01,-0.03 0,-0.03 0.01,-0.03 0.01,-0.04 0.01,-0.04 0.01,-0.04 0.02,-0.04 0.01,-0.05 0.02,-0.04 0.01,-0.05 0.02,-0.05 0.02,-0.05 0.03,-0.05 0.02,-0.05 0.03,-0.05 0.02,-0.05 0.03,-0.05 0.03,-0.04 0.04,-0.05 0.03,-0.04 0.04,-0.05 0.04,-0.04 0.04,-0.04 0.04,-0.03 0.05,-0.03 0.05,-0.03 0.02,-0.01 0.03,-0.02 0.03,-0.01 0.02,-0.01 0.03,-0.01 0.03,0 0.03,-0.01 0.03,-0.01 0.03,0 0.03,0 0.03,-0.01 0.03,0 c 0.05,0 0.29,0 0.5,0.13 -0.28,0.05 -0.48,0.3 -0.48,0.54 0,0.16 0.11,0.35 0.38,0.35 0.22,0 0.54,-0.18 0.54,-0.58 0,-0.52 -0.59,-0.66 -0.93,-0.66 -0.57,0 -0.92,0.53 -1.04,0.76 -0.25,-0.66 -0.79,-0.76 -1.07,-0.76 -1.04,0 -1.61,1.29 -1.61,1.53 0,0.1 0.1,0.1 0.12,0.1 0.08,0 0.11,-0.02 0.13,-0.11 0.34,-1.05 1,-1.3 1.34,-1.3 0.18,0 0.53,0.09 0.53,0.67 0,0.31 -0.17,0.97 -0.53,2.36 -0.16,0.62 -0.51,1.04 -0.95,1.04 -0.06,0 -0.29,0 -0.5,-0.13 0.25,-0.05 0.47,-0.26 0.47,-0.54 0,-0.27 -0.22,-0.35 -0.37,-0.35 -0.3,0 -0.54,0.26 -0.54,0.58 0,0.46 0.49,0.65 0.93,0.65 0.66,0 1.01,-0.69 1.04,-0.75 0.12,0.37 0.48,0.75 1.08,0.75 1.02,0 1.59,-1.28 1.59,-1.53 0,-0.1 -0.09,-0.1 -0.12,-0.1 -0.09,0 -0.11,0.05 -0.13,0.11 -0.33,1.07 -1,1.31 -1.32,1.31 -0.39,0 -0.55,-0.32 -0.55,-0.66 0,-0.22 0.06,-0.44 0.17,-0.87 z"
         inkscape:connector-curvature="0"
         style="font-style:normal;font-variant:normal;font-weight:normal;font-stretch:normal;letter-spacing:normal;word-spacing:normal;text-anchor:start;fill:#000000;fill-opacity:1;fill-rule:evenodd;stroke:#000000;stroke-width:0;stroke-linecap:butt;stroke-linejoin:miter;stroke-miterlimit:10.43299961;stroke-dasharray:none;stroke-dashoffset:0;stroke-opacity:1" />
      <path
         id="path4148"
         d="m 230.41571,172.38571 -0.24,0 c -0.02,0.16 -0.09,0.57 -0.18,0.64 -0.06,0.04 -0.59,0.04 -0.69,0.04 l -1.28,0 c 0.73,-0.65 0.97,-0.84 1.39,-1.17 0.52,-0.41 1,-0.84 1,-1.5 0,-0.84 -0.74,-1.36 -1.63,-1.36 -0.87,0 -1.45,0.61 -1.45,1.25 0,0.35 0.3,0.39 0.37,0.39 0.17,0 0.37,-0.12 0.37,-0.37 0,-0.13 -0.05,-0.37 -0.41,-0.37 0.21,-0.49 0.69,-0.65 1.01,-0.65 0.7,0 1.06,0.54 1.06,1.11 0,0.6 -0.43,1.08 -0.65,1.33 l -1.68,1.66 c -0.07,0.06 -0.07,0.07 -0.07,0.27 l 2.87,0 z"
         inkscape:connector-curvature="0"
         style="font-style:normal;font-variant:normal;font-weight:normal;font-stretch:normal;letter-spacing:normal;word-spacing:normal;text-anchor:start;fill:#000000;fill-opacity:1;fill-rule:evenodd;stroke:#000000;stroke-width:0;stroke-linecap:butt;stroke-linejoin:miter;stroke-miterlimit:10.43299961;stroke-dasharray:none;stroke-dashoffset:0;stroke-opacity:1" />
    </g>
    <g
       id="g4287"
       transform="translate(-13.20419,-21.568169)">
      <path
         id="path4154"
         d="m 250.08571,171.63571 -0.01,-0.03 0,-0.02 0,-0.03 -0.01,-0.03 0,-0.02 -0.01,-0.03 -0.01,-0.02 -0.01,-0.03 -0.01,-0.02 -0.01,-0.02 -0.01,-0.02 -0.02,-0.02 -0.01,-0.03 -0.02,-0.02 -0.01,-0.01 -0.02,-0.02 -0.02,-0.02 -0.02,-0.02 -0.02,-0.01 -0.02,-0.02 -0.02,-0.01 -0.02,-0.01 -0.02,-0.02 -0.03,-0.01 -0.02,-0.01 -0.03,0 -0.02,-0.01 -0.03,-0.01 -0.02,0 -0.03,-0.01 -0.03,0 -0.02,0 c -0.29,0 -0.53,0.24 -0.53,0.53 0,0.29 0.24,0.53 0.53,0.53 0.29,0 0.53,-0.24 0.53,-0.53 z"
         inkscape:connector-curvature="0"
         style="font-style:normal;font-variant:normal;font-weight:normal;font-stretch:normal;letter-spacing:normal;word-spacing:normal;text-anchor:start;fill:#000000;fill-opacity:1;fill-rule:evenodd;stroke:#000000;stroke-width:0;stroke-linecap:butt;stroke-linejoin:miter;stroke-miterlimit:10.43299961;stroke-dasharray:none;stroke-dashoffset:0;stroke-opacity:1" />
      <path
         id="path4156"
         d="m 254.51571,171.63571 0,-0.03 -0.01,-0.02 0,-0.03 0,-0.03 -0.01,-0.02 -0.01,-0.03 -0.01,-0.02 0,-0.03 -0.02,-0.02 -0.01,-0.02 -0.01,-0.02 -0.01,-0.02 -0.02,-0.03 -0.01,-0.02 -0.02,-0.01 -0.02,-0.02 -0.02,-0.02 -0.02,-0.02 -0.02,-0.01 -0.02,-0.02 -0.02,-0.01 -0.02,-0.01 -0.02,-0.02 -0.03,-0.01 -0.02,-0.01 -0.02,0 -0.03,-0.01 -0.03,-0.01 -0.02,0 -0.03,-0.01 -0.02,0 -0.03,0 c -0.29,0 -0.53,0.24 -0.53,0.53 0,0.29 0.24,0.53 0.53,0.53 0.29,0 0.53,-0.24 0.53,-0.53 z"
         inkscape:connector-curvature="0"
         style="font-style:normal;font-variant:normal;font-weight:normal;font-stretch:normal;letter-spacing:normal;word-spacing:normal;text-anchor:start;fill:#000000;fill-opacity:1;fill-rule:evenodd;stroke:#000000;stroke-width:0;stroke-linecap:butt;stroke-linejoin:miter;stroke-miterlimit:10.43299961;stroke-dasharray:none;stroke-dashoffset:0;stroke-opacity:1" />
      <path
         id="path4158"
         d="m 258.93571,171.63571 0,-0.03 0,-0.02 -0.01,-0.03 0,-0.03 -0.01,-0.02 -0.01,-0.03 0,-0.02 -0.01,-0.03 -0.01,-0.02 -0.02,-0.02 -0.01,-0.02 -0.01,-0.02 -0.02,-0.03 -0.01,-0.02 -0.02,-0.01 -0.02,-0.02 -0.02,-0.02 -0.02,-0.02 -0.01,-0.01 -0.03,-0.02 -0.02,-0.01 -0.02,-0.01 -0.02,-0.02 -0.03,-0.01 -0.02,-0.01 -0.02,0 -0.03,-0.01 -0.02,-0.01 -0.03,0 -0.03,-0.01 -0.02,0 -0.03,0 c -0.29,0 -0.53,0.24 -0.53,0.53 0,0.29 0.24,0.53 0.53,0.53 0.29,0 0.53,-0.24 0.53,-0.53 z"
         inkscape:connector-curvature="0"
         style="font-style:normal;font-variant:normal;font-weight:normal;font-stretch:normal;letter-spacing:normal;word-spacing:normal;text-anchor:start;fill:#000000;fill-opacity:1;fill-rule:evenodd;stroke:#000000;stroke-width:0;stroke-linecap:butt;stroke-linejoin:miter;stroke-miterlimit:10.43299961;stroke-dasharray:none;stroke-dashoffset:0;stroke-opacity:1" />
    </g>
    <g
       id="g4282"
       transform="translate(17.57269,-21.143169)">
      <path
         id="path4160"
         d="m 266.44571,169.16571 0,-0.03 0.01,-0.03 0.01,-0.03 0.01,-0.04 0.01,-0.04 0.01,-0.04 0.01,-0.04 0.02,-0.05 0.01,-0.04 0.02,-0.05 0.02,-0.05 0.02,-0.05 0.02,-0.05 0.03,-0.05 0.02,-0.05 0.03,-0.05 0.03,-0.05 0.03,-0.04 0.03,-0.05 0.04,-0.04 0.04,-0.05 0.04,-0.04 0.04,-0.04 0.04,-0.03 0.05,-0.03 0.05,-0.03 0.02,-0.01 0.03,-0.02 0.02,-0.01 0.03,-0.01 0.03,-0.01 0.03,0 0.03,-0.01 0.03,-0.01 0.03,0 0.03,0 0.03,-0.01 0.03,0 c 0.05,0 0.29,0 0.5,0.13 -0.28,0.05 -0.48,0.3 -0.48,0.54 0,0.16 0.11,0.35 0.38,0.35 0.22,0 0.54,-0.18 0.54,-0.58 0,-0.52 -0.59,-0.66 -0.93,-0.66 -0.58,0 -0.92,0.53 -1.04,0.76 -0.25,-0.66 -0.79,-0.76 -1.08,-0.76 -1.03,0 -1.6,1.29 -1.6,1.53 0,0.1 0.1,0.1 0.12,0.1 0.08,0 0.11,-0.02 0.13,-0.11 0.34,-1.05 0.99,-1.3 1.33,-1.3 0.19,0 0.54,0.09 0.54,0.67 0,0.31 -0.17,0.97 -0.54,2.36 -0.16,0.62 -0.51,1.04 -0.94,1.04 -0.06,0 -0.29,0 -0.5,-0.13 0.25,-0.05 0.47,-0.26 0.47,-0.54 0,-0.27 -0.22,-0.35 -0.37,-0.35 -0.3,0 -0.55,0.26 -0.55,0.58 0,0.46 0.5,0.65 0.94,0.65 0.65,0 1.01,-0.69 1.04,-0.75 0.12,0.37 0.48,0.75 1.08,0.75 1.02,0 1.59,-1.28 1.59,-1.53 0,-0.1 -0.09,-0.1 -0.12,-0.1 -0.09,0 -0.11,0.05 -0.13,0.11 -0.33,1.07 -1.01,1.31 -1.32,1.31 -0.39,0 -0.55,-0.32 -0.55,-0.66 0,-0.22 0.06,-0.44 0.17,-0.87 z"
         inkscape:connector-curvature="0"
         style="font-style:normal;font-variant:normal;font-weight:normal;font-stretch:normal;letter-spacing:normal;word-spacing:normal;text-anchor:start;fill:#000000;fill-opacity:1;fill-rule:evenodd;stroke:#000000;stroke-width:0;stroke-linecap:butt;stroke-linejoin:miter;stroke-miterlimit:10.43299961;stroke-dasharray:none;stroke-dashoffset:0;stroke-opacity:1" />
      <path
         id="path4162"
         d="m 269.65571,173.21571 0,0.01 0,0.01 -0.01,0.01 0,0.01 0,0.01 0,0.01 -0.01,0.01 0,0.01 -0.01,0.02 0,0.03 -0.01,0.02 0,0.02 -0.01,0.01 0,0.01 0,0.01 0,0.01 -0.01,0.01 0,0.01 0,0.01 0,0.01 0,0 0,0.01 -0.01,0.01 0,0 0,0.01 0,0 0,0 0,0 0,0 0,0.01 c 0,0.15 0.13,0.22 0.24,0.22 0.12,0 0.24,-0.09 0.27,-0.15 0.04,-0.07 0.09,-0.29 0.13,-0.44 0.03,-0.13 0.11,-0.45 0.15,-0.62 0.04,-0.15 0.08,-0.31 0.12,-0.47 0.07,-0.28 0.09,-0.34 0.29,-0.62 0.2,-0.28 0.52,-0.64 1.05,-0.64 0.4,0 0.4,0.35 0.4,0.48 0,0.42 -0.29,1.19 -0.4,1.49 -0.08,0.19 -0.11,0.25 -0.11,0.37 0,0.37 0.31,0.6 0.66,0.6 0.7,0 1.01,-0.96 1.01,-1.06 0,-0.1 -0.1,-0.1 -0.12,-0.1 -0.09,0 -0.1,0.05 -0.13,0.12 -0.16,0.56 -0.46,0.84 -0.74,0.84 -0.14,0 -0.17,-0.09 -0.17,-0.24 0,-0.16 0.03,-0.25 0.16,-0.56 0.08,-0.22 0.37,-0.96 0.37,-1.35 0,-0.67 -0.54,-0.79 -0.91,-0.79 -0.58,0 -0.97,0.36 -1.18,0.63 -0.04,-0.47 -0.45,-0.63 -0.74,-0.63 -0.3,0 -0.46,0.22 -0.55,0.38 -0.15,0.25 -0.25,0.65 -0.25,0.69 0,0.09 0.1,0.09 0.12,0.09 0.1,0 0.1,-0.02 0.15,-0.21 0.11,-0.41 0.24,-0.75 0.51,-0.75 0.18,0 0.23,0.15 0.23,0.34 0,0.13 -0.06,0.39 -0.11,0.57 -0.05,0.19 -0.12,0.48 -0.16,0.63 z"
         inkscape:connector-curvature="0"
         style="font-style:normal;font-variant:normal;font-weight:normal;font-stretch:normal;letter-spacing:normal;word-spacing:normal;text-anchor:start;fill:#000000;fill-opacity:1;fill-rule:evenodd;stroke:#000000;stroke-width:0;stroke-linecap:butt;stroke-linejoin:miter;stroke-miterlimit:10.43299961;stroke-dasharray:none;stroke-dashoffset:0;stroke-opacity:1" />
      <path
         id="path4164"
         d="m 275.71571,171.49571 0,-0.01 0,-0.01 0,0 0,-0.01 0,-0.01 0,0 0,-0.01 0,0 0,-0.01 0,0 -0.01,-0.01 0,0 0,-0.01 0,0 0,-0.01 0,0 0,0 0,-0.01 0,0 0,0 0,-0.01 -0.01,-0.01 0,0 0,-0.01 -0.01,0 0,0 -0.01,-0.01 0,0 -0.01,0 0,0 -0.01,-0.01 -0.01,0 -0.01,0 0,0 0,0 -0.01,0 0,0 -0.01,0 0,0 -0.01,0 -0.01,0 0,0 -0.01,0 0,0 -0.01,0 -0.01,0 0,0 -0.01,0 -0.01,0 0,0 -0.01,0 c -0.36,0.32 -0.91,0.32 -1.01,0.32 l -0.08,0 0,0.21 0.08,0 c 0.12,0 0.44,-0.01 0.73,-0.13 l 0,2.48 c 0,0.15 0,0.21 -0.53,0.21 l -0.25,0 0,0.22 c 0.28,-0.02 0.72,-0.02 1.01,-0.02 0.29,0 0.73,0 1,0.02 l 0,-0.22 -0.25,0 c -0.52,0 -0.52,-0.06 -0.52,-0.21 z"
         inkscape:connector-curvature="0"
         style="font-style:normal;font-variant:normal;font-weight:normal;font-stretch:normal;letter-spacing:normal;word-spacing:normal;text-anchor:start;fill:#000000;fill-opacity:1;fill-rule:evenodd;stroke:#000000;stroke-width:0;stroke-linecap:butt;stroke-linejoin:miter;stroke-miterlimit:10.43299961;stroke-dasharray:none;stroke-dashoffset:0;stroke-opacity:1" />
    </g>
    <g
       id="g4275"
       transform="translate(15.1909,-21.143169)">
      <path
         id="path4166"
         d="m 284.76571,169.16571 0,-0.03 0.01,-0.03 0.01,-0.03 0.01,-0.04 0.01,-0.04 0.01,-0.04 0.01,-0.04 0.02,-0.05 0.01,-0.04 0.02,-0.05 0.02,-0.05 0.02,-0.05 0.02,-0.05 0.03,-0.05 0.02,-0.05 0.03,-0.05 0.03,-0.05 0.03,-0.04 0.03,-0.05 0.04,-0.04 0.04,-0.05 0.04,-0.04 0.04,-0.04 0.04,-0.03 0.05,-0.03 0.05,-0.03 0.02,-0.01 0.03,-0.02 0.03,-0.01 0.02,-0.01 0.03,-0.01 0.03,0 0.03,-0.01 0.03,-0.01 0.03,0 0.03,0 0.03,-0.01 0.03,0 c 0.05,0 0.29,0 0.5,0.13 -0.28,0.05 -0.48,0.3 -0.48,0.54 0,0.16 0.11,0.35 0.38,0.35 0.22,0 0.54,-0.18 0.54,-0.58 0,-0.52 -0.59,-0.66 -0.93,-0.66 -0.58,0 -0.92,0.53 -1.04,0.76 -0.25,-0.66 -0.79,-0.76 -1.08,-0.76 -1.03,0 -1.6,1.29 -1.6,1.53 0,0.1 0.1,0.1 0.12,0.1 0.08,0 0.11,-0.02 0.13,-0.11 0.34,-1.05 0.99,-1.3 1.33,-1.3 0.19,0 0.54,0.09 0.54,0.67 0,0.31 -0.17,0.97 -0.54,2.36 -0.16,0.62 -0.5,1.04 -0.94,1.04 -0.06,0 -0.29,0 -0.5,-0.13 0.25,-0.05 0.47,-0.26 0.47,-0.54 0,-0.27 -0.22,-0.35 -0.37,-0.35 -0.3,0 -0.55,0.26 -0.55,0.58 0,0.46 0.5,0.65 0.94,0.65 0.65,0 1.01,-0.69 1.04,-0.75 0.12,0.37 0.48,0.75 1.08,0.75 1.02,0 1.59,-1.28 1.59,-1.53 0,-0.1 -0.09,-0.1 -0.12,-0.1 -0.09,0 -0.11,0.05 -0.13,0.11 -0.33,1.07 -1.01,1.31 -1.32,1.31 -0.39,0 -0.55,-0.32 -0.55,-0.66 0,-0.22 0.06,-0.44 0.17,-0.87 z"
         inkscape:connector-curvature="0"
         style="font-style:normal;font-variant:normal;font-weight:normal;font-stretch:normal;letter-spacing:normal;word-spacing:normal;text-anchor:start;fill:#000000;fill-opacity:1;fill-rule:evenodd;stroke:#000000;stroke-width:0;stroke-linecap:butt;stroke-linejoin:miter;stroke-miterlimit:10.43299961;stroke-dasharray:none;stroke-dashoffset:0;stroke-opacity:1" />
      <path
         id="path4168"
         d="m 287.98571,173.21571 0,0.01 -0.01,0.01 0,0.01 0,0.01 -0.01,0.01 0,0.01 0,0.01 0,0.01 -0.01,0.02 -0.01,0.03 0,0.02 -0.01,0.02 0,0.01 0,0.01 0,0.01 -0.01,0.01 0,0.01 0,0.01 0,0.01 -0.01,0.01 0,0 0,0.01 0,0.01 0,0 0,0.01 0,0 0,0 0,0 0,0 0,0.01 c 0,0.15 0.12,0.22 0.23,0.22 0.13,0 0.24,-0.09 0.28,-0.15 0.03,-0.07 0.09,-0.29 0.12,-0.44 0.04,-0.13 0.11,-0.45 0.16,-0.62 0.04,-0.15 0.08,-0.31 0.11,-0.47 0.08,-0.28 0.09,-0.34 0.3,-0.62 0.19,-0.28 0.52,-0.64 1.04,-0.64 0.4,0 0.41,0.35 0.41,0.48 0,0.42 -0.3,1.19 -0.41,1.49 -0.08,0.19 -0.1,0.25 -0.1,0.37 0,0.37 0.3,0.6 0.66,0.6 0.69,0 1,-0.96 1,-1.06 0,-0.1 -0.09,-0.1 -0.11,-0.1 -0.1,0 -0.11,0.05 -0.13,0.12 -0.16,0.56 -0.46,0.84 -0.74,0.84 -0.15,0 -0.18,-0.09 -0.18,-0.24 0,-0.16 0.04,-0.25 0.16,-0.56 0.09,-0.22 0.37,-0.96 0.37,-1.35 0,-0.67 -0.53,-0.79 -0.9,-0.79 -0.58,0 -0.97,0.36 -1.18,0.63 -0.05,-0.47 -0.46,-0.63 -0.74,-0.63 -0.3,0 -0.46,0.22 -0.55,0.38 -0.16,0.25 -0.26,0.65 -0.26,0.69 0,0.09 0.1,0.09 0.12,0.09 0.1,0 0.11,-0.02 0.16,-0.21 0.1,-0.41 0.23,-0.75 0.5,-0.75 0.19,0 0.23,0.15 0.23,0.34 0,0.13 -0.06,0.39 -0.11,0.57 -0.05,0.19 -0.12,0.48 -0.15,0.63 z"
         inkscape:connector-curvature="0"
         style="font-style:normal;font-variant:normal;font-weight:normal;font-stretch:normal;letter-spacing:normal;word-spacing:normal;text-anchor:start;fill:#000000;fill-opacity:1;fill-rule:evenodd;stroke:#000000;stroke-width:0;stroke-linecap:butt;stroke-linejoin:miter;stroke-miterlimit:10.43299961;stroke-dasharray:none;stroke-dashoffset:0;stroke-opacity:1" />
      <path
         id="path4170"
         d="m 294.03571,171.49571 0,-0.01 0,-0.01 0,0 0,-0.01 0,-0.01 0,0 0,-0.01 0,0 0,-0.01 0,0 0,-0.01 0,0 0,-0.01 0,0 0,-0.01 0,0 0,0 0,-0.01 0,0 -0.01,0 0,-0.01 0,-0.01 0,0 -0.01,-0.01 0,0 -0.01,0 0,-0.01 -0.01,0 0,0 -0.01,0 0,-0.01 -0.01,0 -0.01,0 0,0 -0.01,0 0,0 -0.01,0 0,0 -0.01,0 0,0 -0.01,0 -0.01,0 0,0 -0.01,0 0,0 -0.01,0 -0.01,0 0,0 -0.01,0 -0.01,0 -0.01,0 c -0.35,0.32 -0.9,0.32 -1,0.32 l -0.09,0 0,0.21 0.09,0 c 0.11,0 0.44,-0.01 0.73,-0.13 l 0,2.48 c 0,0.15 0,0.21 -0.53,0.21 l -0.25,0 0,0.22 c 0.27,-0.02 0.71,-0.02 1,-0.02 0.29,0 0.74,0 1.01,0.02 l 0,-0.22 -0.25,0 c -0.53,0 -0.53,-0.06 -0.53,-0.21 z"
         inkscape:connector-curvature="0"
         style="font-style:normal;font-variant:normal;font-weight:normal;font-stretch:normal;letter-spacing:normal;word-spacing:normal;text-anchor:start;fill:#000000;fill-opacity:1;fill-rule:evenodd;stroke:#000000;stroke-width:0;stroke-linecap:butt;stroke-linejoin:miter;stroke-miterlimit:10.43299961;stroke-dasharray:none;stroke-dashoffset:0;stroke-opacity:1" />
      <path
         id="path4172"
         d="m 299.17571,172.08571 2.13,0 c 0.09,0 0.25,0 0.25,-0.17 0,-0.17 -0.16,-0.17 -0.25,-0.17 l -2.13,0 0,-2.14 c 0,-0.09 0,-0.25 -0.17,-0.25 -0.18,0 -0.18,0.15 -0.18,0.25 l 0,2.14 -2.13,0 c -0.09,0 -0.26,0 -0.26,0.16 0,0.18 0.16,0.18 0.26,0.18 l 2.13,0 0,2.13 c 0,0.09 0,0.26 0.17,0.26 0.18,0 0.18,-0.16 0.18,-0.26 z"
         inkscape:connector-curvature="0"
         style="font-style:normal;font-variant:normal;font-weight:normal;font-stretch:normal;letter-spacing:normal;word-spacing:normal;text-anchor:start;fill:#000000;fill-opacity:1;fill-rule:evenodd;stroke:#000000;stroke-width:0;stroke-linecap:butt;stroke-linejoin:miter;stroke-miterlimit:10.43299961;stroke-dasharray:none;stroke-dashoffset:0;stroke-opacity:1" />
      <path
         id="path4174"
         d="m 304.39571,169.23571 0,-0.01 0,-0.01 0,-0.01 0,-0.01 0,0 0,-0.01 0,-0.01 0,-0.01 0,0 0,-0.01 0,-0.01 0,0 0,-0.01 0,0 0,-0.01 -0.01,0 0,-0.01 0,0 0,-0.01 0,-0.01 0,-0.01 -0.01,0 0,-0.01 -0.01,-0.01 0,0 -0.01,-0.01 0,0 -0.01,0 -0.01,-0.01 -0.01,0 0,0 -0.01,0 -0.01,0 0,0 -0.01,0 -0.01,-0.01 0,0 -0.01,0 0,0 -0.01,0 -0.01,0 0,0 -0.01,0 -0.01,0 -0.01,0 0,0 -0.01,0 -0.01,0 -0.01,0 -0.01,0 c -0.45,0.44 -1.08,0.45 -1.36,0.45 l 0,0.25 c 0.16,0 0.62,0 1.01,-0.2 l 0,3.55 c 0,0.23 0,0.32 -0.7,0.32 l -0.27,0 0,0.25 c 0.13,-0.01 0.99,-0.03 1.24,-0.03 0.22,0 1.1,0.02 1.25,0.03 l 0,-0.25 -0.26,0 c -0.7,0 -0.7,-0.09 -0.7,-0.32 z"
         inkscape:connector-curvature="0"
         style="font-style:normal;font-variant:normal;font-weight:normal;font-stretch:normal;letter-spacing:normal;word-spacing:normal;text-anchor:start;fill:#000000;fill-opacity:1;fill-rule:evenodd;stroke:#000000;stroke-width:0;stroke-linecap:butt;stroke-linejoin:miter;stroke-miterlimit:10.43299961;stroke-dasharray:none;stroke-dashoffset:0;stroke-opacity:1" />
    </g>
    <g
       id="g4270"
       transform="translate(39.812775,-21.568169)">
      <path
         id="path4176"
         d="m 311.76571,171.63571 0,-0.03 0,-0.02 -0.01,-0.03 0,-0.03 -0.01,-0.02 -0.01,-0.03 0,-0.02 -0.01,-0.03 -0.01,-0.02 -0.02,-0.02 -0.01,-0.02 -0.01,-0.02 -0.02,-0.03 -0.01,-0.02 -0.02,-0.01 -0.02,-0.02 -0.02,-0.02 -0.02,-0.02 -0.01,-0.01 -0.03,-0.02 -0.02,-0.01 -0.02,-0.01 -0.02,-0.02 -0.03,-0.01 -0.02,-0.01 -0.02,0 -0.03,-0.01 -0.02,-0.01 -0.03,0 -0.03,-0.01 -0.02,0 -0.03,0 c -0.29,0 -0.53,0.24 -0.53,0.53 0,0.29 0.24,0.53 0.53,0.53 0.29,0 0.53,-0.24 0.53,-0.53 z"
         inkscape:connector-curvature="0"
         style="font-style:normal;font-variant:normal;font-weight:normal;font-stretch:normal;letter-spacing:normal;word-spacing:normal;text-anchor:start;fill:#000000;fill-opacity:1;fill-rule:evenodd;stroke:#000000;stroke-width:0;stroke-linecap:butt;stroke-linejoin:miter;stroke-miterlimit:10.43299961;stroke-dasharray:none;stroke-dashoffset:0;stroke-opacity:1" />
      <path
         id="path4178"
         d="m 316.19571,171.63571 0,-0.03 0,-0.02 -0.01,-0.03 0,-0.03 -0.01,-0.02 0,-0.03 -0.01,-0.02 -0.01,-0.03 -0.01,-0.02 -0.01,-0.02 -0.02,-0.02 -0.01,-0.02 -0.02,-0.03 -0.01,-0.02 -0.02,-0.01 -0.02,-0.02 -0.01,-0.02 -0.02,-0.02 -0.02,-0.01 -0.02,-0.02 -0.03,-0.01 -0.02,-0.01 -0.02,-0.02 -0.02,-0.01 -0.03,-0.01 -0.02,0 -0.03,-0.01 -0.02,-0.01 -0.03,0 -0.02,-0.01 -0.03,0 -0.03,0 c -0.29,0 -0.52,0.24 -0.52,0.53 0,0.29 0.23,0.53 0.52,0.53 0.29,0 0.53,-0.24 0.53,-0.53 z"
         inkscape:connector-curvature="0"
         style="font-style:normal;font-variant:normal;font-weight:normal;font-stretch:normal;letter-spacing:normal;word-spacing:normal;text-anchor:start;fill:#000000;fill-opacity:1;fill-rule:evenodd;stroke:#000000;stroke-width:0;stroke-linecap:butt;stroke-linejoin:miter;stroke-miterlimit:10.43299961;stroke-dasharray:none;stroke-dashoffset:0;stroke-opacity:1" />
      <path
         id="path4180"
         d="m 320.61571,171.63571 0,-0.03 0,-0.02 -0.01,-0.03 0,-0.03 -0.01,-0.02 0,-0.03 -0.01,-0.02 -0.01,-0.03 -0.01,-0.02 -0.01,-0.02 -0.02,-0.02 -0.01,-0.02 -0.01,-0.03 -0.02,-0.02 -0.02,-0.01 -0.01,-0.02 -0.02,-0.02 -0.02,-0.02 -0.02,-0.01 -0.02,-0.02 -0.02,-0.01 -0.03,-0.01 -0.02,-0.02 -0.02,-0.01 -0.03,-0.01 -0.02,0 -0.03,-0.01 -0.02,-0.01 -0.03,0 -0.02,-0.01 -0.03,0 -0.03,0 c -0.28,0 -0.52,0.24 -0.52,0.53 0,0.29 0.24,0.53 0.52,0.53 0.29,0 0.53,-0.24 0.53,-0.53 z"
         inkscape:connector-curvature="0"
         style="font-style:normal;font-variant:normal;font-weight:normal;font-stretch:normal;letter-spacing:normal;word-spacing:normal;text-anchor:start;fill:#000000;fill-opacity:1;fill-rule:evenodd;stroke:#000000;stroke-width:0;stroke-linecap:butt;stroke-linejoin:miter;stroke-miterlimit:10.43299961;stroke-dasharray:none;stroke-dashoffset:0;stroke-opacity:1" />
    </g>
    <g
       id="g4265"
       transform="translate(70.49965,-21.143169)">
      <path
         id="path4182"
         d="m 328.12571,169.16571 0.01,-0.03 0,-0.03 0.01,-0.03 0.01,-0.04 0.01,-0.04 0.01,-0.04 0.02,-0.04 0.01,-0.05 0.02,-0.04 0.01,-0.05 0.02,-0.05 0.02,-0.05 0.03,-0.05 0.02,-0.05 0.02,-0.05 0.03,-0.05 0.03,-0.05 0.03,-0.04 0.04,-0.05 0.03,-0.04 0.04,-0.05 0.04,-0.04 0.04,-0.04 0.04,-0.03 0.05,-0.03 0.05,-0.03 0.02,-0.01 0.03,-0.02 0.03,-0.01 0.02,-0.01 0.03,-0.01 0.03,0 0.03,-0.01 0.03,-0.01 0.03,0 0.03,0 0.03,-0.01 0.03,0 c 0.05,0 0.29,0 0.5,0.13 -0.28,0.05 -0.48,0.3 -0.48,0.54 0,0.16 0.11,0.35 0.38,0.35 0.22,0 0.54,-0.18 0.54,-0.58 0,-0.52 -0.59,-0.66 -0.93,-0.66 -0.57,0 -0.92,0.53 -1.04,0.76 -0.25,-0.66 -0.79,-0.76 -1.08,-0.76 -1.03,0 -1.6,1.29 -1.6,1.53 0,0.1 0.1,0.1 0.12,0.1 0.08,0 0.11,-0.02 0.13,-0.11 0.34,-1.05 1,-1.3 1.34,-1.3 0.18,0 0.53,0.09 0.53,0.67 0,0.31 -0.17,0.97 -0.53,2.36 -0.16,0.62 -0.51,1.04 -0.95,1.04 -0.06,0 -0.29,0 -0.5,-0.13 0.25,-0.05 0.47,-0.26 0.47,-0.54 0,-0.27 -0.22,-0.35 -0.37,-0.35 -0.3,0 -0.55,0.26 -0.55,0.58 0,0.46 0.5,0.65 0.94,0.65 0.66,0 1.01,-0.69 1.04,-0.75 0.12,0.37 0.48,0.75 1.08,0.75 1.02,0 1.59,-1.28 1.59,-1.53 0,-0.1 -0.09,-0.1 -0.12,-0.1 -0.09,0 -0.11,0.05 -0.13,0.11 -0.33,1.07 -1,1.31 -1.32,1.31 -0.39,0 -0.55,-0.32 -0.55,-0.66 0,-0.22 0.06,-0.44 0.17,-0.87 z"
         inkscape:connector-curvature="0"
         style="font-style:normal;font-variant:normal;font-weight:normal;font-stretch:normal;letter-spacing:normal;word-spacing:normal;text-anchor:start;fill:#000000;fill-opacity:1;fill-rule:evenodd;stroke:#000000;stroke-width:0;stroke-linecap:butt;stroke-linejoin:miter;stroke-miterlimit:10.43299961;stroke-dasharray:none;stroke-dashoffset:0;stroke-opacity:1" />
      <path
         id="path4184"
         d="m 331.34571,173.21571 -0.01,0.01 0,0.01 0,0.01 -0.01,0.01 0,0.01 0,0.01 0,0.01 -0.01,0.01 0,0.02 -0.01,0.03 0,0.02 -0.01,0.02 0,0.01 0,0.01 -0.01,0.01 0,0.01 0,0.01 0,0.01 -0.01,0.01 0,0.01 0,0 0,0.01 0,0.01 0,0 0,0.01 0,0 0,0 0,0 0,0 0,0.01 c 0,0.15 0.12,0.22 0.23,0.22 0.13,0 0.24,-0.09 0.27,-0.15 0.04,-0.07 0.09,-0.29 0.13,-0.44 0.03,-0.13 0.11,-0.45 0.15,-0.62 0.05,-0.15 0.09,-0.31 0.12,-0.47 0.08,-0.28 0.09,-0.34 0.29,-0.62 0.2,-0.28 0.53,-0.64 1.05,-0.64 0.4,0 0.41,0.35 0.41,0.48 0,0.42 -0.3,1.19 -0.41,1.49 -0.08,0.19 -0.11,0.25 -0.11,0.37 0,0.37 0.31,0.6 0.67,0.6 0.69,0 1,-0.96 1,-1.06 0,-0.1 -0.09,-0.1 -0.11,-0.1 -0.1,0 -0.11,0.05 -0.13,0.12 -0.16,0.56 -0.47,0.84 -0.74,0.84 -0.15,0 -0.18,-0.09 -0.18,-0.24 0,-0.16 0.04,-0.25 0.16,-0.56 0.09,-0.22 0.37,-0.96 0.37,-1.35 0,-0.67 -0.54,-0.79 -0.9,-0.79 -0.58,0 -0.97,0.36 -1.18,0.63 -0.05,-0.47 -0.46,-0.63 -0.75,-0.63 -0.29,0 -0.45,0.22 -0.55,0.38 -0.15,0.25 -0.25,0.65 -0.25,0.69 0,0.09 0.1,0.09 0.12,0.09 0.1,0 0.11,-0.02 0.15,-0.21 0.11,-0.41 0.24,-0.75 0.51,-0.75 0.18,0 0.23,0.15 0.23,0.34 0,0.13 -0.06,0.39 -0.11,0.57 -0.05,0.19 -0.12,0.48 -0.15,0.63 z"
         inkscape:connector-curvature="0"
         style="font-style:normal;font-variant:normal;font-weight:normal;font-stretch:normal;letter-spacing:normal;word-spacing:normal;text-anchor:start;fill:#000000;fill-opacity:1;fill-rule:evenodd;stroke:#000000;stroke-width:0;stroke-linecap:butt;stroke-linejoin:miter;stroke-miterlimit:10.43299961;stroke-dasharray:none;stroke-dashoffset:0;stroke-opacity:1" />
      <path
         id="path4186"
         d="m 338.34571,173.69571 -0.21,0 c -0.01,0.09 -0.06,0.4 -0.14,0.45 -0.04,0.03 -0.46,0.03 -0.54,0.03 l -0.97,0 c 0.33,-0.24 0.7,-0.52 0.99,-0.72 0.45,-0.31 0.87,-0.6 0.87,-1.12 0,-0.64 -0.6,-0.99 -1.31,-0.99 -0.67,0 -1.17,0.39 -1.17,0.87 0,0.26 0.22,0.3 0.29,0.3 0.14,0 0.3,-0.08 0.3,-0.29 0,-0.18 -0.13,-0.28 -0.29,-0.29 0.14,-0.22 0.43,-0.37 0.76,-0.37 0.48,0 0.89,0.29 0.89,0.77 0,0.42 -0.29,0.74 -0.67,1.06 l -1.22,1.03 c -0.05,0.04 -0.05,0.04 -0.06,0.08 l 0,0.15 2.32,0 z"
         inkscape:connector-curvature="0"
         style="font-style:normal;font-variant:normal;font-weight:normal;font-stretch:normal;letter-spacing:normal;word-spacing:normal;text-anchor:start;fill:#000000;fill-opacity:1;fill-rule:evenodd;stroke:#000000;stroke-width:0;stroke-linecap:butt;stroke-linejoin:miter;stroke-miterlimit:10.43299961;stroke-dasharray:none;stroke-dashoffset:0;stroke-opacity:1" />
    </g>
    <g
       id="g4258"
       transform="translate(68.19786,-21.143169)">
      <path
         id="path4188"
         d="m 346.44571,169.16571 0.01,-0.03 0,-0.03 0.01,-0.03 0.01,-0.04 0.01,-0.04 0.01,-0.04 0.02,-0.04 0.01,-0.05 0.02,-0.04 0.02,-0.05 0.01,-0.05 0.03,-0.05 0.02,-0.05 0.02,-0.05 0.03,-0.05 0.03,-0.05 0.02,-0.05 0.04,-0.04 0.03,-0.05 0.03,-0.04 0.04,-0.05 0.04,-0.04 0.04,-0.04 0.05,-0.03 0.04,-0.03 0.05,-0.03 0.03,-0.01 0.02,-0.02 0.03,-0.01 0.03,-0.01 0.02,-0.01 0.03,0 0.03,-0.01 0.03,-0.01 0.03,0 0.03,0 0.03,-0.01 0.04,0 c 0.05,0 0.28,0 0.49,0.13 -0.28,0.05 -0.47,0.3 -0.47,0.54 0,0.16 0.1,0.35 0.37,0.35 0.22,0 0.54,-0.18 0.54,-0.58 0,-0.52 -0.59,-0.66 -0.92,-0.66 -0.58,0 -0.93,0.53 -1.05,0.76 -0.25,-0.66 -0.78,-0.76 -1.07,-0.76 -1.04,0 -1.61,1.29 -1.61,1.53 0,0.1 0.1,0.1 0.12,0.1 0.08,0 0.11,-0.02 0.13,-0.11 0.34,-1.05 1,-1.3 1.34,-1.3 0.19,0 0.53,0.09 0.53,0.67 0,0.31 -0.16,0.97 -0.53,2.36 -0.16,0.62 -0.51,1.04 -0.95,1.04 -0.06,0 -0.29,0 -0.5,-0.13 0.25,-0.05 0.47,-0.26 0.47,-0.54 0,-0.27 -0.22,-0.35 -0.37,-0.35 -0.29,0 -0.54,0.26 -0.54,0.58 0,0.46 0.49,0.65 0.93,0.65 0.66,0 1.02,-0.69 1.05,-0.75 0.12,0.37 0.47,0.75 1.07,0.75 1.03,0 1.59,-1.28 1.59,-1.53 0,-0.1 -0.09,-0.1 -0.12,-0.1 -0.09,0 -0.11,0.05 -0.13,0.11 -0.32,1.07 -1,1.31 -1.32,1.31 -0.39,0 -0.55,-0.32 -0.55,-0.66 0,-0.22 0.06,-0.44 0.17,-0.87 z"
         inkscape:connector-curvature="0"
         style="font-style:normal;font-variant:normal;font-weight:normal;font-stretch:normal;letter-spacing:normal;word-spacing:normal;text-anchor:start;fill:#000000;fill-opacity:1;fill-rule:evenodd;stroke:#000000;stroke-width:0;stroke-linecap:butt;stroke-linejoin:miter;stroke-miterlimit:10.43299961;stroke-dasharray:none;stroke-dashoffset:0;stroke-opacity:1" />
      <path
         id="path4190"
         d="m 349.66571,173.21571 0,0.01 0,0.01 -0.01,0.01 0,0.01 0,0.01 0,0.01 -0.01,0.01 0,0.01 -0.01,0.02 0,0.03 -0.01,0.02 0,0.02 -0.01,0.01 0,0.01 0,0.01 0,0.01 -0.01,0.01 0,0.01 0,0.01 0,0.01 0,0 0,0.01 -0.01,0.01 0,0 0,0.01 0,0 0,0 0,0 0,0 0,0.01 c 0,0.15 0.13,0.22 0.24,0.22 0.12,0 0.24,-0.09 0.27,-0.15 0.04,-0.07 0.09,-0.29 0.13,-0.44 0.03,-0.13 0.11,-0.45 0.15,-0.62 0.04,-0.15 0.08,-0.31 0.12,-0.47 0.07,-0.28 0.09,-0.34 0.29,-0.62 0.19,-0.28 0.52,-0.64 1.04,-0.64 0.41,0 0.41,0.35 0.41,0.48 0,0.42 -0.29,1.19 -0.41,1.49 -0.07,0.19 -0.1,0.25 -0.1,0.37 0,0.37 0.31,0.6 0.66,0.6 0.7,0 1,-0.96 1,-1.06 0,-0.1 -0.09,-0.1 -0.11,-0.1 -0.09,0 -0.1,0.05 -0.13,0.12 -0.16,0.56 -0.46,0.84 -0.74,0.84 -0.14,0 -0.17,-0.09 -0.17,-0.24 0,-0.16 0.03,-0.25 0.16,-0.56 0.08,-0.22 0.37,-0.96 0.37,-1.35 0,-0.67 -0.54,-0.79 -0.91,-0.79 -0.58,0 -0.97,0.36 -1.18,0.63 -0.04,-0.47 -0.45,-0.63 -0.74,-0.63 -0.3,0 -0.46,0.22 -0.55,0.38 -0.15,0.25 -0.25,0.65 -0.25,0.69 0,0.09 0.1,0.09 0.12,0.09 0.1,0 0.1,-0.02 0.15,-0.21 0.1,-0.41 0.24,-0.75 0.51,-0.75 0.18,0 0.23,0.15 0.23,0.34 0,0.13 -0.06,0.39 -0.11,0.57 -0.05,0.19 -0.12,0.48 -0.16,0.63 z"
         inkscape:connector-curvature="0"
         style="font-style:normal;font-variant:normal;font-weight:normal;font-stretch:normal;letter-spacing:normal;word-spacing:normal;text-anchor:start;fill:#000000;fill-opacity:1;fill-rule:evenodd;stroke:#000000;stroke-width:0;stroke-linecap:butt;stroke-linejoin:miter;stroke-miterlimit:10.43299961;stroke-dasharray:none;stroke-dashoffset:0;stroke-opacity:1" />
      <path
         id="path4192"
         d="m 356.67571,173.69571 -0.21,0 c -0.02,0.09 -0.07,0.4 -0.15,0.45 -0.04,0.03 -0.45,0.03 -0.53,0.03 l -0.97,0 c 0.32,-0.24 0.69,-0.52 0.99,-0.72 0.45,-0.31 0.87,-0.6 0.87,-1.12 0,-0.64 -0.61,-0.99 -1.32,-0.99 -0.67,0 -1.16,0.39 -1.16,0.87 0,0.26 0.22,0.3 0.29,0.3 0.13,0 0.29,-0.08 0.29,-0.29 0,-0.18 -0.13,-0.28 -0.28,-0.29 0.14,-0.22 0.43,-0.37 0.76,-0.37 0.48,0 0.88,0.29 0.88,0.77 0,0.42 -0.28,0.74 -0.67,1.06 l -1.21,1.03 c -0.05,0.04 -0.06,0.04 -0.06,0.08 l 0,0.15 2.31,0 z"
         inkscape:connector-curvature="0"
         style="font-style:normal;font-variant:normal;font-weight:normal;font-stretch:normal;letter-spacing:normal;word-spacing:normal;text-anchor:start;fill:#000000;fill-opacity:1;fill-rule:evenodd;stroke:#000000;stroke-width:0;stroke-linecap:butt;stroke-linejoin:miter;stroke-miterlimit:10.43299961;stroke-dasharray:none;stroke-dashoffset:0;stroke-opacity:1" />
      <path
         id="path4194"
         d="m 360.85571,172.08571 2.13,0 c 0.09,0 0.26,0 0.26,-0.17 0,-0.17 -0.16,-0.17 -0.26,-0.17 l -2.13,0 0,-2.14 c 0,-0.09 0,-0.25 -0.17,-0.25 -0.17,0 -0.17,0.15 -0.17,0.25 l 0,2.14 -2.14,0 c -0.09,0 -0.26,0 -0.26,0.16 0,0.18 0.16,0.18 0.26,0.18 l 2.14,0 0,2.13 c 0,0.09 0,0.26 0.16,0.26 0.18,0 0.18,-0.16 0.18,-0.26 z"
         inkscape:connector-curvature="0"
         style="font-style:normal;font-variant:normal;font-weight:normal;font-stretch:normal;letter-spacing:normal;word-spacing:normal;text-anchor:start;fill:#000000;fill-opacity:1;fill-rule:evenodd;stroke:#000000;stroke-width:0;stroke-linecap:butt;stroke-linejoin:miter;stroke-miterlimit:10.43299961;stroke-dasharray:none;stroke-dashoffset:0;stroke-opacity:1" />
      <path
         id="path4196"
         d="m 366.07571,169.23571 0,-0.01 0,-0.01 0,-0.01 0,-0.01 0,0 0,-0.01 0,-0.01 0,-0.01 0,0 0,-0.01 0,-0.01 0,0 0,-0.01 0,0 0,-0.01 0,0 0,-0.01 0,0 -0.01,-0.01 0,-0.01 0,-0.01 0,0 -0.01,-0.01 0,-0.01 -0.01,0 0,-0.01 -0.01,0 -0.01,0 0,-0.01 -0.01,0 -0.01,0 -0.01,0 0,0 -0.01,0 -0.01,0 0,-0.01 -0.01,0 0,0 -0.01,0 -0.01,0 0,0 -0.01,0 -0.01,0 0,0 -0.01,0 -0.01,0 -0.01,0 -0.01,0 -0.01,0 -0.01,0 c -0.44,0.44 -1.07,0.45 -1.36,0.45 l 0,0.25 c 0.17,0 0.63,0 1.01,-0.2 l 0,3.55 c 0,0.23 0,0.32 -0.7,0.32 l -0.26,0 0,0.25 c 0.12,-0.01 0.98,-0.03 1.24,-0.03 0.21,0 1.09,0.02 1.25,0.03 l 0,-0.25 -0.27,0 c -0.7,0 -0.7,-0.09 -0.7,-0.32 z"
         inkscape:connector-curvature="0"
         style="font-style:normal;font-variant:normal;font-weight:normal;font-stretch:normal;letter-spacing:normal;word-spacing:normal;text-anchor:start;fill:#000000;fill-opacity:1;fill-rule:evenodd;stroke:#000000;stroke-width:0;stroke-linecap:butt;stroke-linejoin:miter;stroke-miterlimit:10.43299961;stroke-dasharray:none;stroke-dashoffset:0;stroke-opacity:1" />
    </g>
    <path
       style="fill:none;fill-rule:evenodd;stroke:#000000;stroke-width:1;stroke-linecap:butt;stroke-linejoin:miter;stroke-miterlimit:4;stroke-dasharray:none;stroke-opacity:1"
       d="m 172.32143,137.00503 376.86605,0"
       id="path4304"
       inkscape:connector-curvature="0" />
    <path
       style="fill:none;fill-rule:evenodd;stroke:#000000;stroke-width:1px;stroke-linecap:butt;stroke-linejoin:miter;stroke-opacity:1"
       d="m 402.21536,136.97457 0,5.3033"
       id="path4316"
       inkscape:connector-curvature="0" />
    <path
       style="fill:none;fill-rule:evenodd;stroke:#000000;stroke-width:1px;stroke-linecap:butt;stroke-linejoin:miter;stroke-opacity:1"
       d="m 194.03464,136.97457 0,5.3033"
       id="path4324"
       inkscape:connector-curvature="0" />
    <path
       inkscape:connector-curvature="0"
       id="path4326"
       d="m 172.82143,136.97457 0,5.3033"
       style="fill:none;fill-rule:evenodd;stroke:#000000;stroke-width:1px;stroke-linecap:butt;stroke-linejoin:miter;stroke-opacity:1" />
    <path
       inkscape:connector-curvature="0"
       id="path4330"
       d="m 308.73161,136.97457 0,5.3033"
       style="fill:none;fill-rule:evenodd;stroke:#000000;stroke-width:1px;stroke-linecap:butt;stroke-linejoin:miter;stroke-opacity:1" />
    <path
       inkscape:connector-curvature="0"
       id="path4314"
       d="m 423.42857,136.97457 0,5.3033"
       style="fill:none;fill-rule:evenodd;stroke:#000000;stroke-width:1px;stroke-linecap:butt;stroke-linejoin:miter;stroke-opacity:1" />
    <path
       style="fill:none;fill-rule:evenodd;stroke:#000000;stroke-width:1px;stroke-linecap:butt;stroke-linejoin:miter;stroke-opacity:1"
       d="m 287.5184,136.97457 0,5.3033"
       id="path4332"
       inkscape:connector-curvature="0" />
    <g
       transform="translate(163.05139,-21.568169)"
       id="g4352">
      <path
         style="font-style:normal;font-variant:normal;font-weight:normal;font-stretch:normal;letter-spacing:normal;word-spacing:normal;text-anchor:start;fill:#000000;fill-opacity:1;fill-rule:evenodd;stroke:#000000;stroke-width:0;stroke-linecap:butt;stroke-linejoin:miter;stroke-miterlimit:10.43299961;stroke-dasharray:none;stroke-dashoffset:0;stroke-opacity:1"
         inkscape:connector-curvature="0"
         d="m 311.76571,171.63571 0,-0.03 0,-0.02 -0.01,-0.03 0,-0.03 -0.01,-0.02 -0.01,-0.03 0,-0.02 -0.01,-0.03 -0.01,-0.02 -0.02,-0.02 -0.01,-0.02 -0.01,-0.02 -0.02,-0.03 -0.01,-0.02 -0.02,-0.01 -0.02,-0.02 -0.02,-0.02 -0.02,-0.02 -0.01,-0.01 -0.03,-0.02 -0.02,-0.01 -0.02,-0.01 -0.02,-0.02 -0.03,-0.01 -0.02,-0.01 -0.02,0 -0.03,-0.01 -0.02,-0.01 -0.03,0 -0.03,-0.01 -0.02,0 -0.03,0 c -0.29,0 -0.53,0.24 -0.53,0.53 0,0.29 0.24,0.53 0.53,0.53 0.29,0 0.53,-0.24 0.53,-0.53 z"
         id="path4354" />
      <path
         style="font-style:normal;font-variant:normal;font-weight:normal;font-stretch:normal;letter-spacing:normal;word-spacing:normal;text-anchor:start;fill:#000000;fill-opacity:1;fill-rule:evenodd;stroke:#000000;stroke-width:0;stroke-linecap:butt;stroke-linejoin:miter;stroke-miterlimit:10.43299961;stroke-dasharray:none;stroke-dashoffset:0;stroke-opacity:1"
         inkscape:connector-curvature="0"
         d="m 316.19571,171.63571 0,-0.03 0,-0.02 -0.01,-0.03 0,-0.03 -0.01,-0.02 0,-0.03 -0.01,-0.02 -0.01,-0.03 -0.01,-0.02 -0.01,-0.02 -0.02,-0.02 -0.01,-0.02 -0.02,-0.03 -0.01,-0.02 -0.02,-0.01 -0.02,-0.02 -0.01,-0.02 -0.02,-0.02 -0.02,-0.01 -0.02,-0.02 -0.03,-0.01 -0.02,-0.01 -0.02,-0.02 -0.02,-0.01 -0.03,-0.01 -0.02,0 -0.03,-0.01 -0.02,-0.01 -0.03,0 -0.02,-0.01 -0.03,0 -0.03,0 c -0.29,0 -0.52,0.24 -0.52,0.53 0,0.29 0.23,0.53 0.52,0.53 0.29,0 0.53,-0.24 0.53,-0.53 z"
         id="path4356" />
      <path
         style="font-style:normal;font-variant:normal;font-weight:normal;font-stretch:normal;letter-spacing:normal;word-spacing:normal;text-anchor:start;fill:#000000;fill-opacity:1;fill-rule:evenodd;stroke:#000000;stroke-width:0;stroke-linecap:butt;stroke-linejoin:miter;stroke-miterlimit:10.43299961;stroke-dasharray:none;stroke-dashoffset:0;stroke-opacity:1"
         inkscape:connector-curvature="0"
         d="m 320.61571,171.63571 0,-0.03 0,-0.02 -0.01,-0.03 0,-0.03 -0.01,-0.02 0,-0.03 -0.01,-0.02 -0.01,-0.03 -0.01,-0.02 -0.01,-0.02 -0.02,-0.02 -0.01,-0.02 -0.01,-0.03 -0.02,-0.02 -0.02,-0.01 -0.01,-0.02 -0.02,-0.02 -0.02,-0.02 -0.02,-0.01 -0.02,-0.02 -0.02,-0.01 -0.03,-0.01 -0.02,-0.02 -0.02,-0.01 -0.03,-0.01 -0.02,0 -0.03,-0.01 -0.02,-0.01 -0.03,0 -0.02,-0.01 -0.03,0 -0.03,0 c -0.28,0 -0.52,0.24 -0.52,0.53 0,0.29 0.24,0.53 0.52,0.53 0.29,0 0.53,-0.24 0.53,-0.53 z"
         id="path4358" />
    </g>
    <g
       transform="translate(-77.113515,37.547059)"
       id="g4646">
      <path
         style="font-style:normal;font-variant:normal;font-weight:normal;font-stretch:normal;letter-spacing:normal;word-spacing:normal;text-anchor:start;fill:#000000;fill-opacity:1;fill-rule:evenodd;stroke:#000000;stroke-width:0;stroke-linecap:butt;stroke-linejoin:miter;stroke-miterlimit:10.43299961;stroke-dasharray:none;stroke-dashoffset:0;stroke-opacity:1"
         inkscape:connector-curvature="0"
         d="m 282.46859,74.88042 -1.27,-0.31 c -0.62,-0.15 -1,-0.68 -1,-1.26 0,-0.69 0.53,-1.3 1.31,-1.3 1.66,0 1.88,1.63 1.94,2.08 0.01,0.06 0.01,0.11 0.12,0.11 0.13,0 0.13,-0.05 0.13,-0.23 l 0,-2 c 0,-0.17 0,-0.24 -0.11,-0.24 -0.07,0 -0.08,0.01 -0.15,0.13 l -0.35,0.57 c -0.3,-0.29 -0.7,-0.7 -1.59,-0.7 -1.11,0 -1.94,0.88 -1.94,1.93 0,0.82 0.53,1.55 1.3,1.82 0.11,0.04 0.62,0.16 1.32,0.33 0.26,0.06 0.56,0.13 0.84,0.5 0.21,0.26 0.31,0.59 0.31,0.91 0,0.71 -0.5,1.43 -1.33,1.43 -0.29,0 -1.05,-0.05 -1.58,-0.54 -0.57,-0.54 -0.6,-1.17 -0.61,-1.53 -0.01,-0.1 -0.09,-0.1 -0.12,-0.1 -0.13,0 -0.13,0.07 -0.13,0.25 l 0,1.98 c 0,0.17 0,0.24 0.11,0.24 0.07,0 0.08,-0.02 0.15,-0.13 0,-0.01 0.03,-0.04 0.36,-0.56 0.3,0.34 0.94,0.69 1.83,0.69 1.16,0 1.96,-0.97 1.96,-2.06 0,-1 -0.66,-1.81 -1.5,-2.01 z"
         id="path4411" />
      <path
         style="font-style:normal;font-variant:normal;font-weight:normal;font-stretch:normal;letter-spacing:normal;word-spacing:normal;text-anchor:start;fill:#000000;fill-opacity:1;fill-rule:evenodd;stroke:#000000;stroke-width:0;stroke-linecap:butt;stroke-linejoin:miter;stroke-miterlimit:10.43299961;stroke-dasharray:none;stroke-dashoffset:0;stroke-opacity:1"
         inkscape:connector-curvature="0"
         d="m 286.29859,74.34042 -1.39,0.11 0,0.31 c 0.64,0 0.73,0.06 0.73,0.55 l 0,2.67 c 0,0.45 -0.11,0.45 -0.77,0.45 l 0,0.31 c 0.31,-0.02 0.85,-0.04 1.09,-0.04 0.35,0 0.7,0.02 1.04,0.04 l 0,-0.31 c -0.66,0 -0.7,-0.05 -0.7,-0.44 z"
         id="path4413" />
      <path
         style="font-style:normal;font-variant:normal;font-weight:normal;font-stretch:normal;letter-spacing:normal;word-spacing:normal;text-anchor:start;fill:#000000;fill-opacity:1;fill-rule:evenodd;stroke:#000000;stroke-width:0;stroke-linecap:butt;stroke-linejoin:miter;stroke-miterlimit:10.43299961;stroke-dasharray:none;stroke-dashoffset:0;stroke-opacity:1"
         inkscape:connector-curvature="0"
         d="m 286.33859,72.62042 0,-0.03 0,-0.03 -0.01,-0.03 0,-0.03 -0.01,-0.02 -0.01,-0.03 -0.01,-0.03 -0.01,-0.02 -0.01,-0.02 -0.01,-0.03 -0.01,-0.02 -0.02,-0.02 -0.01,-0.02 -0.02,-0.02 -0.01,-0.02 -0.02,-0.02 -0.02,-0.01 -0.02,-0.02 -0.02,-0.01 -0.02,-0.02 -0.02,-0.01 -0.02,-0.01 -0.03,-0.01 -0.02,-0.01 -0.02,-0.01 -0.03,-0.01 -0.02,-0.01 -0.03,0 -0.02,-0.01 -0.03,0 -0.02,0 -0.03,0 c -0.31,0 -0.53,0.27 -0.53,0.53 0,0.26 0.22,0.52 0.53,0.52 0.28,0 0.53,-0.21 0.53,-0.52 z"
         id="path4415" />
      <path
         style="font-style:normal;font-variant:normal;font-weight:normal;font-stretch:normal;letter-spacing:normal;word-spacing:normal;text-anchor:start;fill:#000000;fill-opacity:1;fill-rule:evenodd;stroke:#000000;stroke-width:0;stroke-linecap:butt;stroke-linejoin:miter;stroke-miterlimit:10.43299961;stroke-dasharray:none;stroke-dashoffset:0;stroke-opacity:1"
         inkscape:connector-curvature="0"
         d="m 288.39859,75.32042 0,2.66 c 0,0.45 -0.11,0.45 -0.78,0.45 l 0,0.31 c 0.35,-0.02 0.86,-0.04 1.13,-0.04 0.26,0 0.77,0.02 1.11,0.04 l 0,-0.31 c -0.67,0 -0.77,0 -0.77,-0.45 l 0,-1.83 c 0,-1.03 0.7,-1.59 1.34,-1.59 0.63,0 0.74,0.54 0.74,1.1 l 0,2.32 c 0,0.45 -0.11,0.45 -0.78,0.45 l 0,0.31 c 0.35,-0.02 0.86,-0.04 1.12,-0.04 0.26,0 0.78,0.02 1.12,0.04 l 0,-0.31 c -0.67,0 -0.78,0 -0.78,-0.45 l 0,-1.83 c 0,-1.03 0.71,-1.59 1.34,-1.59 0.63,0 0.74,0.54 0.74,1.1 l 0,2.32 c 0,0.45 -0.11,0.45 -0.77,0.45 l 0,0.31 c 0.34,-0.02 0.85,-0.04 1.12,-0.04 0.26,0 0.78,0.02 1.11,0.04 l 0,-0.31 c -0.51,0 -0.76,0 -0.77,-0.3 l 0,-1.9 c 0,-0.85 0,-1.16 -0.31,-1.52 -0.14,-0.17 -0.47,-0.37 -1.05,-0.37 -0.83,0 -1.27,0.6 -1.44,0.98 -0.14,-0.87 -0.87,-0.98 -1.32,-0.98 -0.73,0 -1.19,0.43 -1.47,1.05 l 0,-1.05 -1.41,0.11 0,0.31 c 0.7,0 0.78,0.07 0.78,0.56 z"
         id="path4417" />
      <path
         style="font-style:normal;font-variant:normal;font-weight:normal;font-stretch:normal;letter-spacing:normal;word-spacing:normal;text-anchor:start;fill:#000000;fill-opacity:1;fill-rule:evenodd;stroke:#000000;stroke-width:0;stroke-linecap:butt;stroke-linejoin:miter;stroke-miterlimit:10.43299961;stroke-dasharray:none;stroke-dashoffset:0;stroke-opacity:1"
         inkscape:connector-curvature="0"
         d="m 299.21859,77.95042 0,0.89 1.43,-0.1 0,-0.31 c -0.7,0 -0.78,-0.07 -0.78,-0.56 l 0,-3.53 -1.46,0.11 0,0.31 c 0.7,0 0.78,0.07 0.78,0.56 l 0,1.77 c 0,0.86 -0.48,1.54 -1.21,1.54 -0.83,0 -0.87,-0.47 -0.87,-0.99 l 0,-3.3 -1.46,0.11 0,0.31 c 0.77,0 0.77,0.03 0.77,0.92 l 0,1.49 c 0,0.77 0,1.67 1.51,1.67 0.56,0 1,-0.27 1.29,-0.89 z"
         id="path4419" />
      <path
         style="font-style:normal;font-variant:normal;font-weight:normal;font-stretch:normal;letter-spacing:normal;word-spacing:normal;text-anchor:start;fill:#000000;fill-opacity:1;fill-rule:evenodd;stroke:#000000;stroke-width:0;stroke-linecap:butt;stroke-linejoin:miter;stroke-miterlimit:10.43299961;stroke-dasharray:none;stroke-dashoffset:0;stroke-opacity:1"
         inkscape:connector-curvature="0"
         d="m 302.61859,71.84042 -1.43,0.11 0,0.31 c 0.7,0 0.78,0.07 0.78,0.55 l 0,5.17 c 0,0.45 -0.11,0.45 -0.78,0.45 l 0,0.31 c 0.33,-0.02 0.86,-0.04 1.11,-0.04 0.24,0 0.73,0.02 1.1,0.04 l 0,-0.31 c -0.67,0 -0.78,0 -0.78,-0.45 z"
         id="path4421" />
      <path
         style="font-style:normal;font-variant:normal;font-weight:normal;font-stretch:normal;letter-spacing:normal;word-spacing:normal;text-anchor:start;fill:#000000;fill-opacity:1;fill-rule:evenodd;stroke:#000000;stroke-width:0;stroke-linecap:butt;stroke-linejoin:miter;stroke-miterlimit:10.43299961;stroke-dasharray:none;stroke-dashoffset:0;stroke-opacity:1"
         inkscape:connector-curvature="0"
         d="m 306.93859,77.98042 0.01,0.04 0,0.03 0.01,0.04 0.01,0.04 0.01,0.04 0.01,0.03 0.01,0.04 0.02,0.03 0.01,0.04 0.02,0.03 0.01,0.04 0.02,0.03 0.02,0.03 0.02,0.04 0.03,0.03 0.02,0.03 0.03,0.02 0.02,0.03 0.03,0.03 0.03,0.02 0.03,0.02 0.03,0.03 0.03,0.02 0.04,0.01 0.03,0.02 0.04,0.01 0.04,0.02 0.03,0.01 0.04,0 0.04,0.01 0.05,0 0.04,0 c 0.21,0 0.81,-0.13 0.81,-0.94 l 0,-0.56 -0.24,0 0,0.56 c 0,0.58 -0.25,0.64 -0.36,0.64 -0.33,0 -0.37,-0.45 -0.37,-0.5 l 0,-1.99 c 0,-0.41 0,-0.8 -0.36,-1.17 -0.39,-0.39 -0.88,-0.55 -1.36,-0.55 -0.82,0 -1.5,0.47 -1.5,1.13 0,0.29 0.2,0.46 0.46,0.46 0.27,0 0.45,-0.19 0.45,-0.45 0,-0.12 -0.05,-0.45 -0.5,-0.46 0.26,-0.35 0.75,-0.46 1.07,-0.46 0.49,0 1.05,0.39 1.05,1.27 l 0,0.37 0,0.21 0,0.99 c 0,0.95 -0.71,1.29 -1.16,1.29 -0.49,0 -0.9,-0.35 -0.9,-0.85 0,-0.54 0.42,-1.37 2.06,-1.43 l 0,0 0,-0.21 c -0.5,0.03 -1.2,0.06 -1.83,0.36 -0.74,0.34 -0.99,0.85 -0.99,1.29 0,0.81 0.96,1.05 1.59,1.05 0.66,0 1.11,-0.39 1.3,-0.86 z"
         id="path4423" />
      <path
         style="font-style:normal;font-variant:normal;font-weight:normal;font-stretch:normal;letter-spacing:normal;word-spacing:normal;text-anchor:start;fill:#000000;fill-opacity:1;fill-rule:evenodd;stroke:#000000;stroke-width:0;stroke-linecap:butt;stroke-linejoin:miter;stroke-miterlimit:10.43299961;stroke-dasharray:none;stroke-dashoffset:0;stroke-opacity:1"
         inkscape:connector-curvature="0"
         d="m 310.32859,74.76042 1.43,0 0,-0.31 -1.43,0 0,-1.82 -0.25,0 c -0.01,0.81 -0.3,1.87 -1.28,1.91 l 0,0.22 0.85,0 0,2.74 c 0,1.22 0.92,1.34 1.28,1.34 0.71,0 0.99,-0.7 0.99,-1.34 l 0,-0.56 -0.25,0 0,0.54 c 0,0.74 -0.3,1.12 -0.67,1.12 -0.67,0 -0.67,-0.91 -0.67,-1.08 z"
         id="path4425" />
      <path
         style="font-style:normal;font-variant:normal;font-weight:normal;font-stretch:normal;letter-spacing:normal;word-spacing:normal;text-anchor:start;fill:#000000;fill-opacity:1;fill-rule:evenodd;stroke:#000000;stroke-width:0;stroke-linecap:butt;stroke-linejoin:miter;stroke-miterlimit:10.43299961;stroke-dasharray:none;stroke-dashoffset:0;stroke-opacity:1"
         inkscape:connector-curvature="0"
         d="m 314.24859,74.34042 -1.4,0.11 0,0.31 c 0.65,0 0.74,0.06 0.74,0.55 l 0,2.67 c 0,0.45 -0.11,0.45 -0.78,0.45 l 0,0.31 c 0.32,-0.02 0.86,-0.04 1.1,-0.04 0.35,0 0.7,0.02 1.03,0.04 l 0,-0.31 c -0.65,0 -0.69,-0.05 -0.69,-0.44 z"
         id="path4427" />
      <path
         style="font-style:normal;font-variant:normal;font-weight:normal;font-stretch:normal;letter-spacing:normal;word-spacing:normal;text-anchor:start;fill:#000000;fill-opacity:1;fill-rule:evenodd;stroke:#000000;stroke-width:0;stroke-linecap:butt;stroke-linejoin:miter;stroke-miterlimit:10.43299961;stroke-dasharray:none;stroke-dashoffset:0;stroke-opacity:1"
         inkscape:connector-curvature="0"
         d="m 314.28859,72.62042 0,-0.03 -0.01,-0.03 0,-0.03 0,-0.03 -0.01,-0.02 -0.01,-0.03 -0.01,-0.03 -0.01,-0.02 -0.01,-0.02 -0.01,-0.03 -0.01,-0.02 -0.02,-0.02 -0.01,-0.02 -0.02,-0.02 -0.01,-0.02 -0.02,-0.02 -0.02,-0.01 -0.02,-0.02 -0.02,-0.01 -0.02,-0.02 -0.02,-0.01 -0.02,-0.01 -0.03,-0.01 -0.02,-0.01 -0.02,-0.01 -0.03,-0.01 -0.02,-0.01 -0.03,0 -0.02,-0.01 -0.03,0 -0.02,0 -0.03,0 c -0.31,0 -0.53,0.27 -0.53,0.53 0,0.26 0.22,0.52 0.53,0.52 0.28,0 0.53,-0.21 0.53,-0.52 z"
         id="path4429" />
      <path
         style="font-style:normal;font-variant:normal;font-weight:normal;font-stretch:normal;letter-spacing:normal;word-spacing:normal;text-anchor:start;fill:#000000;fill-opacity:1;fill-rule:evenodd;stroke:#000000;stroke-width:0;stroke-linecap:butt;stroke-linejoin:miter;stroke-miterlimit:10.43299961;stroke-dasharray:none;stroke-dashoffset:0;stroke-opacity:1"
         inkscape:connector-curvature="0"
         d="m 319.93859,76.61042 0,-0.12 -0.01,-0.12 -0.02,-0.11 -0.02,-0.12 -0.02,-0.11 -0.03,-0.11 -0.03,-0.11 -0.04,-0.1 -0.05,-0.1 -0.05,-0.1 -0.05,-0.1 -0.06,-0.09 -0.06,-0.1 -0.07,-0.08 -0.06,-0.09 -0.08,-0.08 -0.07,-0.08 -0.08,-0.07 -0.09,-0.07 -0.08,-0.06 -0.09,-0.07 -0.1,-0.05 -0.09,-0.05 -0.1,-0.05 -0.1,-0.04 -0.1,-0.04 -0.1,-0.03 -0.11,-0.03 -0.11,-0.02 -0.11,-0.01 -0.11,-0.01 -0.11,-0.01 -0.01,0.22 c 0.44,0 0.87,0.22 1.13,0.65 0.25,0.43 0.25,1 0.25,1.38 0,0.36 0,0.89 -0.21,1.33 -0.22,0.45 -0.66,0.74 -1.16,0.74 l 0,0 c -0.43,0 -0.86,-0.21 -1.13,-0.67 -0.25,-0.44 -0.25,-1.04 -0.25,-1.4 0,-0.39 0,-0.92 0.24,-1.36 0.27,-0.46 0.73,-0.67 1.13,-0.67 l 0.01,-0.22 c -1.24,0 -2.21,1.09 -2.21,2.33 0,1.28 1.04,2.23 2.2,2.23 1.2,0 2.21,-0.97 2.21,-2.23 z"
         id="path4431" />
      <path
         style="font-style:normal;font-variant:normal;font-weight:normal;font-stretch:normal;letter-spacing:normal;word-spacing:normal;text-anchor:start;fill:#000000;fill-opacity:1;fill-rule:evenodd;stroke:#000000;stroke-width:0;stroke-linecap:butt;stroke-linejoin:miter;stroke-miterlimit:10.43299961;stroke-dasharray:none;stroke-dashoffset:0;stroke-opacity:1"
         inkscape:connector-curvature="0"
         d="m 321.32859,75.32042 0,2.66 c 0,0.45 -0.11,0.45 -0.78,0.45 l 0,0.31 c 0.35,-0.02 0.86,-0.04 1.13,-0.04 0.26,0 0.77,0.02 1.11,0.04 l 0,-0.31 c -0.67,0 -0.77,0 -0.77,-0.45 l 0,-1.83 c 0,-1.03 0.7,-1.59 1.34,-1.59 0.63,0 0.73,0.54 0.73,1.1 l 0,2.32 c 0,0.45 -0.1,0.45 -0.77,0.45 l 0,0.31 c 0.35,-0.02 0.86,-0.04 1.12,-0.04 0.26,0 0.78,0.02 1.12,0.04 l 0,-0.31 c -0.52,0 -0.77,0 -0.78,-0.3 l 0,-1.9 c 0,-0.85 0,-1.16 -0.31,-1.52 -0.14,-0.17 -0.46,-0.37 -1.04,-0.37 -0.73,0 -1.19,0.43 -1.47,1.05 l 0,-1.05 -1.41,0.11 0,0.31 c 0.7,0 0.78,0.07 0.78,0.56 z"
         id="path4433" />
      <path
         style="font-style:normal;font-variant:normal;font-weight:normal;font-stretch:normal;letter-spacing:normal;word-spacing:normal;text-anchor:start;fill:#000000;fill-opacity:1;fill-rule:evenodd;stroke:#000000;stroke-width:0;stroke-linecap:butt;stroke-linejoin:miter;stroke-miterlimit:10.43299961;stroke-dasharray:none;stroke-dashoffset:0;stroke-opacity:1"
         inkscape:connector-curvature="0"
         d="m 332.00859,72.38042 0,-0.01 0,-0.01 0,-0.02 0,-0.01 0,0 0,-0.01 0,-0.01 0,-0.01 0,-0.01 0,-0.01 0,-0.01 0,-0.01 0,0 0,-0.01 0,-0.01 0,0 0,-0.01 0,-0.01 0,-0.01 -0.01,-0.01 0,-0.01 0,-0.01 -0.01,-0.01 0,0 -0.01,-0.01 0,-0.01 -0.01,0 0,-0.01 -0.01,0 -0.01,-0.01 -0.01,0 0,0 -0.01,0 0,0 -0.01,0 0,0 -0.01,-0.01 -0.01,0 0,0 -0.01,0 -0.01,0 0,0 -0.01,0 -0.01,0 -0.01,0 -0.01,0 -0.01,0 -0.01,0 -0.01,0 -0.01,0 -0.01,0 -0.01,0 c -0.61,0.64 -1.49,0.64 -1.81,0.64 l 0,0.3 c 0.2,0 0.79,0 1.31,-0.25 l 0,5.14 c 0,0.36 -0.03,0.48 -0.93,0.48 l -0.32,0 0,0.31 c 0.35,-0.04 1.22,-0.04 1.62,-0.04 0.39,0 1.26,0 1.61,0.04 l 0,-0.31 -0.32,0 c -0.9,0 -0.93,-0.11 -0.93,-0.48 z"
         id="path4435" />
    </g>
    <g
       transform="translate(22.493484,25.587059)"
       id="g4631">
      <path
         style="font-style:normal;font-variant:normal;font-weight:normal;font-stretch:normal;letter-spacing:normal;word-spacing:normal;text-anchor:start;fill:#000000;fill-opacity:1;fill-rule:evenodd;stroke:#000000;stroke-width:0;stroke-linecap:butt;stroke-linejoin:miter;stroke-miterlimit:10.43299961;stroke-dasharray:none;stroke-dashoffset:0;stroke-opacity:1"
         inkscape:connector-curvature="0"
         d="m 297.41859,86.84042 -1.28,-0.31 c -0.61,-0.15 -1,-0.69 -1,-1.26 0,-0.7 0.54,-1.31 1.31,-1.31 1.66,0 1.88,1.63 1.94,2.08 0.01,0.06 0.01,0.12 0.12,0.12 0.13,0 0.13,-0.05 0.13,-0.24 l 0,-1.99 c 0,-0.17 0,-0.24 -0.11,-0.24 -0.07,0 -0.08,0.01 -0.15,0.13 l -0.35,0.56 c -0.29,-0.29 -0.7,-0.69 -1.59,-0.69 -1.1,0 -1.94,0.87 -1.94,1.92 0,0.83 0.53,1.55 1.31,1.82 0.11,0.04 0.61,0.16 1.31,0.33 0.27,0.07 0.57,0.14 0.85,0.51 0.2,0.25 0.3,0.58 0.3,0.91 0,0.71 -0.49,1.42 -1.33,1.42 -0.29,0 -1.04,-0.05 -1.57,-0.54 -0.58,-0.53 -0.61,-1.17 -0.62,-1.53 -0.01,-0.09 -0.09,-0.09 -0.12,-0.09 -0.13,0 -0.13,0.07 -0.13,0.24 l 0,1.99 c 0,0.17 0,0.24 0.11,0.24 0.07,0 0.08,-0.02 0.15,-0.13 0,-0.01 0.03,-0.04 0.36,-0.57 0.31,0.34 0.94,0.7 1.83,0.7 1.16,0 1.96,-0.97 1.96,-2.07 0,-0.99 -0.66,-1.81 -1.49,-2 z"
         id="path4437" />
      <path
         style="font-style:normal;font-variant:normal;font-weight:normal;font-stretch:normal;letter-spacing:normal;word-spacing:normal;text-anchor:start;fill:#000000;fill-opacity:1;fill-rule:evenodd;stroke:#000000;stroke-width:0;stroke-linecap:butt;stroke-linejoin:miter;stroke-miterlimit:10.43299961;stroke-dasharray:none;stroke-dashoffset:0;stroke-opacity:1"
         inkscape:connector-curvature="0"
         d="m 301.23859,86.30042 -1.39,0.11 0,0.31 c 0.65,0 0.74,0.06 0.74,0.54 l 0,2.68 c 0,0.44 -0.11,0.44 -0.78,0.44 l 0,0.31 c 0.32,-0.01 0.86,-0.03 1.09,-0.03 0.35,0 0.7,0.02 1.04,0.03 l 0,-0.31 c -0.66,0 -0.7,-0.05 -0.7,-0.43 z"
         id="path4439" />
      <path
         style="font-style:normal;font-variant:normal;font-weight:normal;font-stretch:normal;letter-spacing:normal;word-spacing:normal;text-anchor:start;fill:#000000;fill-opacity:1;fill-rule:evenodd;stroke:#000000;stroke-width:0;stroke-linecap:butt;stroke-linejoin:miter;stroke-miterlimit:10.43299961;stroke-dasharray:none;stroke-dashoffset:0;stroke-opacity:1"
         inkscape:connector-curvature="0"
         d="m 301.27859,84.57042 0,-0.03 0,-0.03 0,-0.03 -0.01,-0.02 -0.01,-0.03 0,-0.03 -0.01,-0.02 -0.01,-0.03 -0.01,-0.02 -0.01,-0.02 -0.02,-0.02 -0.01,-0.03 -0.02,-0.02 -0.01,-0.02 -0.02,-0.01 -0.02,-0.02 -0.02,-0.02 -0.02,-0.01 -0.02,-0.02 -0.02,-0.01 -0.02,-0.02 -0.02,-0.01 -0.02,-0.01 -0.03,-0.01 -0.02,-0.01 -0.02,0 -0.03,-0.01 -0.02,-0.01 -0.03,0 -0.02,0 -0.03,-0.01 -0.03,0 c -0.3,0 -0.52,0.27 -0.52,0.53 0,0.27 0.22,0.53 0.52,0.53 0.28,0 0.53,-0.21 0.53,-0.53 z"
         id="path4441" />
      <path
         style="font-style:normal;font-variant:normal;font-weight:normal;font-stretch:normal;letter-spacing:normal;word-spacing:normal;text-anchor:start;fill:#000000;fill-opacity:1;fill-rule:evenodd;stroke:#000000;stroke-width:0;stroke-linecap:butt;stroke-linejoin:miter;stroke-miterlimit:10.43299961;stroke-dasharray:none;stroke-dashoffset:0;stroke-opacity:1"
         inkscape:connector-curvature="0"
         d="m 303.33859,87.27042 0,2.67 c 0,0.44 -0.11,0.44 -0.77,0.44 l 0,0.31 c 0.35,-0.01 0.85,-0.03 1.12,-0.03 0.26,0 0.78,0.02 1.12,0.03 l 0,-0.31 c -0.67,0 -0.78,0 -0.78,-0.44 l 0,-1.83 c 0,-1.04 0.71,-1.59 1.34,-1.59 0.63,0 0.74,0.53 0.74,1.1 l 0,2.32 c 0,0.44 -0.11,0.44 -0.78,0.44 l 0,0.31 c 0.35,-0.01 0.86,-0.03 1.13,-0.03 0.26,0 0.77,0.02 1.11,0.03 l 0,-0.31 c -0.66,0 -0.77,0 -0.77,-0.44 l 0,-1.83 c 0,-1.04 0.7,-1.59 1.34,-1.59 0.63,0 0.73,0.53 0.73,1.1 l 0,2.32 c 0,0.44 -0.1,0.44 -0.77,0.44 l 0,0.31 c 0.35,-0.01 0.85,-0.03 1.12,-0.03 0.26,0 0.78,0.02 1.12,0.03 l 0,-0.31 c -0.52,0 -0.77,0 -0.78,-0.3 l 0,-1.89 c 0,-0.86 0,-1.17 -0.31,-1.52 -0.14,-0.17 -0.47,-0.37 -1.04,-0.37 -0.84,0 -1.27,0.59 -1.44,0.97 -0.14,-0.86 -0.88,-0.97 -1.33,-0.97 -0.72,0 -1.19,0.43 -1.47,1.04 l 0,-1.04 -1.4,0.11 0,0.31 c 0.69,0 0.77,0.07 0.77,0.55 z"
         id="path4443" />
      <path
         style="font-style:normal;font-variant:normal;font-weight:normal;font-stretch:normal;letter-spacing:normal;word-spacing:normal;text-anchor:start;fill:#000000;fill-opacity:1;fill-rule:evenodd;stroke:#000000;stroke-width:0;stroke-linecap:butt;stroke-linejoin:miter;stroke-miterlimit:10.43299961;stroke-dasharray:none;stroke-dashoffset:0;stroke-opacity:1"
         inkscape:connector-curvature="0"
         d="m 314.15859,89.90042 0,0.9 1.43,-0.11 0,-0.31 c -0.69,0 -0.77,-0.07 -0.77,-0.55 l 0,-3.53 -1.46,0.11 0,0.31 c 0.69,0 0.77,0.07 0.77,0.55 l 0,1.77 c 0,0.86 -0.48,1.54 -1.2,1.54 -0.84,0 -0.88,-0.47 -0.88,-0.98 l 0,-3.3 -1.46,0.11 0,0.31 c 0.78,0 0.78,0.03 0.78,0.91 l 0,1.49 c 0,0.77 0,1.68 1.51,1.68 0.56,0 0.99,-0.28 1.28,-0.9 z"
         id="path4445" />
      <path
         style="font-style:normal;font-variant:normal;font-weight:normal;font-stretch:normal;letter-spacing:normal;word-spacing:normal;text-anchor:start;fill:#000000;fill-opacity:1;fill-rule:evenodd;stroke:#000000;stroke-width:0;stroke-linecap:butt;stroke-linejoin:miter;stroke-miterlimit:10.43299961;stroke-dasharray:none;stroke-dashoffset:0;stroke-opacity:1"
         inkscape:connector-curvature="0"
         d="m 317.56859,83.80042 -1.43,0.1 0,0.31 c 0.69,0 0.77,0.07 0.77,0.56 l 0,5.17 c 0,0.44 -0.11,0.44 -0.77,0.44 l 0,0.31 c 0.32,-0.01 0.85,-0.03 1.1,-0.03 0.25,0 0.74,0.02 1.1,0.03 l 0,-0.31 c -0.66,0 -0.77,0 -0.77,-0.44 z"
         id="path4447" />
      <path
         style="font-style:normal;font-variant:normal;font-weight:normal;font-stretch:normal;letter-spacing:normal;word-spacing:normal;text-anchor:start;fill:#000000;fill-opacity:1;fill-rule:evenodd;stroke:#000000;stroke-width:0;stroke-linecap:butt;stroke-linejoin:miter;stroke-miterlimit:10.43299961;stroke-dasharray:none;stroke-dashoffset:0;stroke-opacity:1"
         inkscape:connector-curvature="0"
         d="m 321.88859,89.94042 0,0.03 0.01,0.04 0.01,0.04 0,0.03 0.01,0.04 0.01,0.04 0.02,0.03 0.01,0.04 0.01,0.04 0.02,0.03 0.02,0.03 0.02,0.04 0.02,0.03 0.02,0.03 0.02,0.03 0.03,0.03 0.02,0.03 0.03,0.03 0.02,0.02 0.03,0.03 0.03,0.02 0.03,0.02 0.04,0.02 0.03,0.02 0.04,0.01 0.03,0.02 0.04,0.01 0.04,0.01 0.04,0.01 0.04,0.01 0.04,0 0.04,0 c 0.21,0 0.82,-0.14 0.82,-0.94 l 0,-0.56 -0.25,0 0,0.56 c 0,0.57 -0.25,0.63 -0.36,0.63 -0.33,0 -0.37,-0.44 -0.37,-0.49 l 0,-1.99 c 0,-0.42 0,-0.81 -0.35,-1.17 -0.39,-0.39 -0.89,-0.55 -1.37,-0.55 -0.81,0 -1.5,0.47 -1.5,1.12 0,0.3 0.2,0.47 0.46,0.47 0.28,0 0.46,-0.2 0.46,-0.46 0,-0.12 -0.05,-0.44 -0.51,-0.46 0.27,-0.34 0.76,-0.45 1.07,-0.45 0.49,0 1.06,0.39 1.06,1.27 l 0,0.37 0,0.21 0,0.99 c 0,0.94 -0.72,1.28 -1.17,1.28 -0.48,0 -0.89,-0.35 -0.89,-0.84 0,-0.55 0.42,-1.37 2.06,-1.43 l 0,0 0,-0.21 c -0.51,0.03 -1.21,0.06 -1.83,0.35 -0.75,0.34 -1,0.86 -1,1.3 0,0.8 0.97,1.05 1.59,1.05 0.66,0 1.12,-0.4 1.31,-0.86 z"
         id="path4449" />
      <path
         style="font-style:normal;font-variant:normal;font-weight:normal;font-stretch:normal;letter-spacing:normal;word-spacing:normal;text-anchor:start;fill:#000000;fill-opacity:1;fill-rule:evenodd;stroke:#000000;stroke-width:0;stroke-linecap:butt;stroke-linejoin:miter;stroke-miterlimit:10.43299961;stroke-dasharray:none;stroke-dashoffset:0;stroke-opacity:1"
         inkscape:connector-curvature="0"
         d="m 325.27859,86.72042 1.42,0 0,-0.31 -1.42,0 0,-1.83 -0.25,0 c -0.01,0.81 -0.31,1.88 -1.29,1.92 l 0,0.22 0.85,0 0,2.74 c 0,1.22 0.93,1.34 1.28,1.34 0.71,0 0.99,-0.71 0.99,-1.34 l 0,-0.57 -0.25,0 0,0.55 c 0,0.73 -0.3,1.11 -0.67,1.11 -0.66,0 -0.66,-0.9 -0.66,-1.07 z"
         id="path4451" />
      <path
         style="font-style:normal;font-variant:normal;font-weight:normal;font-stretch:normal;letter-spacing:normal;word-spacing:normal;text-anchor:start;fill:#000000;fill-opacity:1;fill-rule:evenodd;stroke:#000000;stroke-width:0;stroke-linecap:butt;stroke-linejoin:miter;stroke-miterlimit:10.43299961;stroke-dasharray:none;stroke-dashoffset:0;stroke-opacity:1"
         inkscape:connector-curvature="0"
         d="m 329.18859,86.30042 -1.39,0.11 0,0.31 c 0.65,0 0.73,0.06 0.73,0.54 l 0,2.68 c 0,0.44 -0.1,0.44 -0.77,0.44 l 0,0.31 c 0.32,-0.01 0.85,-0.03 1.09,-0.03 0.35,0 0.7,0.02 1.04,0.03 l 0,-0.31 c -0.66,0 -0.7,-0.05 -0.7,-0.43 z"
         id="path4453" />
      <path
         style="font-style:normal;font-variant:normal;font-weight:normal;font-stretch:normal;letter-spacing:normal;word-spacing:normal;text-anchor:start;fill:#000000;fill-opacity:1;fill-rule:evenodd;stroke:#000000;stroke-width:0;stroke-linecap:butt;stroke-linejoin:miter;stroke-miterlimit:10.43299961;stroke-dasharray:none;stroke-dashoffset:0;stroke-opacity:1"
         inkscape:connector-curvature="0"
         d="m 329.22859,84.57042 0,-0.03 0,-0.03 -0.01,-0.03 0,-0.02 -0.01,-0.03 0,-0.03 -0.01,-0.02 -0.01,-0.03 -0.01,-0.02 -0.02,-0.02 -0.01,-0.02 -0.01,-0.03 -0.02,-0.02 -0.01,-0.02 -0.02,-0.01 -0.02,-0.02 -0.02,-0.02 -0.02,-0.01 -0.02,-0.02 -0.02,-0.01 -0.02,-0.02 -0.02,-0.01 -0.02,-0.01 -0.03,-0.01 -0.02,-0.01 -0.02,0 -0.03,-0.01 -0.02,-0.01 -0.03,0 -0.02,0 -0.03,-0.01 -0.03,0 c -0.3,0 -0.52,0.27 -0.52,0.53 0,0.27 0.22,0.53 0.52,0.53 0.28,0 0.53,-0.21 0.53,-0.53 z"
         id="path4455" />
      <path
         style="font-style:normal;font-variant:normal;font-weight:normal;font-stretch:normal;letter-spacing:normal;word-spacing:normal;text-anchor:start;fill:#000000;fill-opacity:1;fill-rule:evenodd;stroke:#000000;stroke-width:0;stroke-linecap:butt;stroke-linejoin:miter;stroke-miterlimit:10.43299961;stroke-dasharray:none;stroke-dashoffset:0;stroke-opacity:1"
         inkscape:connector-curvature="0"
         d="m 334.87859,88.56042 0,-0.11 -0.01,-0.12 -0.01,-0.12 -0.02,-0.11 -0.03,-0.11 -0.03,-0.11 -0.03,-0.11 -0.04,-0.11 -0.04,-0.1 -0.05,-0.1 -0.06,-0.1 -0.05,-0.09 -0.07,-0.09 -0.06,-0.09 -0.07,-0.08 -0.07,-0.08 -0.08,-0.08 -0.08,-0.08 -0.08,-0.06 -0.09,-0.07 -0.09,-0.06 -0.09,-0.06 -0.1,-0.05 -0.09,-0.05 -0.1,-0.04 -0.1,-0.03 -0.11,-0.04 -0.1,-0.02 -0.11,-0.02 -0.11,-0.02 -0.11,-0.01 -0.12,0 0,0.22 c 0.43,0 0.86,0.22 1.12,0.64 0.26,0.43 0.26,1.01 0.26,1.38 0,0.36 0,0.9 -0.22,1.34 -0.22,0.44 -0.66,0.73 -1.16,0.73 l 0,0 c -0.42,0 -0.86,-0.21 -1.13,-0.66 -0.25,-0.44 -0.25,-1.05 -0.25,-1.41 0,-0.38 0,-0.92 0.24,-1.36 0.27,-0.45 0.74,-0.66 1.14,-0.66 l 0,-0.22 c -1.24,0 -2.2,1.08 -2.2,2.32 0,1.29 1.03,2.24 2.2,2.24 1.2,0 2.2,-0.97 2.2,-2.24 z"
         id="path4457" />
      <path
         style="font-style:normal;font-variant:normal;font-weight:normal;font-stretch:normal;letter-spacing:normal;word-spacing:normal;text-anchor:start;fill:#000000;fill-opacity:1;fill-rule:evenodd;stroke:#000000;stroke-width:0;stroke-linecap:butt;stroke-linejoin:miter;stroke-miterlimit:10.43299961;stroke-dasharray:none;stroke-dashoffset:0;stroke-opacity:1"
         inkscape:connector-curvature="0"
         d="m 336.26859,87.27042 0,2.67 c 0,0.44 -0.11,0.44 -0.77,0.44 l 0,0.31 c 0.35,-0.01 0.85,-0.03 1.12,-0.03 0.26,0 0.78,0.02 1.12,0.03 l 0,-0.31 c -0.67,0 -0.78,0 -0.78,-0.44 l 0,-1.83 c 0,-1.04 0.71,-1.59 1.34,-1.59 0.63,0 0.74,0.53 0.74,1.1 l 0,2.32 c 0,0.44 -0.11,0.44 -0.78,0.44 l 0,0.31 c 0.35,-0.01 0.86,-0.03 1.13,-0.03 0.26,0 0.77,0.02 1.11,0.03 l 0,-0.31 c -0.51,0 -0.76,0 -0.77,-0.3 l 0,-1.89 c 0,-0.86 0,-1.17 -0.31,-1.52 -0.14,-0.17 -0.47,-0.37 -1.05,-0.37 -0.72,0 -1.19,0.43 -1.47,1.04 l 0,-1.04 -1.4,0.11 0,0.31 c 0.69,0 0.77,0.07 0.77,0.55 z"
         id="path4459" />
      <path
         style="font-style:normal;font-variant:normal;font-weight:normal;font-stretch:normal;letter-spacing:normal;word-spacing:normal;text-anchor:start;fill:#000000;fill-opacity:1;fill-rule:evenodd;stroke:#000000;stroke-width:0;stroke-linecap:butt;stroke-linejoin:miter;stroke-miterlimit:10.43299961;stroke-dasharray:none;stroke-dashoffset:0;stroke-opacity:1"
         inkscape:connector-curvature="0"
         d="m 345.29859,89.93042 1.05,-1.03 c 1.55,-1.37 2.15,-1.9 2.15,-2.9 0,-1.13 -0.9,-1.93 -2.11,-1.93 -1.12,0 -1.86,0.92 -1.86,1.8 0,0.56 0.5,0.56 0.53,0.56 0.17,0 0.51,-0.12 0.51,-0.53 0,-0.26 -0.17,-0.51 -0.52,-0.51 -0.08,0 -0.1,0 -0.13,0 0.23,-0.64 0.76,-1.01 1.34,-1.01 0.91,0 1.33,0.81 1.33,1.62 0,0.8 -0.49,1.58 -1.04,2.2 l -1.91,2.12 c -0.11,0.11 -0.11,0.13 -0.11,0.37 l 3.69,0 0.28,-1.73 -0.25,0 c -0.05,0.3 -0.12,0.74 -0.22,0.89 -0.07,0.08 -0.73,0.08 -0.94,0.08 z"
         id="path4461" />
    </g>
    <g
       transform="translate(137.15038,13.637059)"
       id="g4616">
      <path
         style="font-style:normal;font-variant:normal;font-weight:normal;font-stretch:normal;letter-spacing:normal;word-spacing:normal;text-anchor:start;fill:#000000;fill-opacity:1;fill-rule:evenodd;stroke:#000000;stroke-width:0;stroke-linecap:butt;stroke-linejoin:miter;stroke-miterlimit:10.43299961;stroke-dasharray:none;stroke-dashoffset:0;stroke-opacity:1"
         inkscape:connector-curvature="0"
         d="m 297.41859,98.79042 -1.28,-0.31 c -0.61,-0.15 -1,-0.68 -1,-1.26 0,-0.69 0.54,-1.3 1.31,-1.3 1.66,0 1.88,1.63 1.94,2.08 0.01,0.06 0.01,0.12 0.12,0.12 0.13,0 0.13,-0.05 0.13,-0.24 l 0,-2 c 0,-0.17 0,-0.24 -0.11,-0.24 -0.07,0 -0.08,0.01 -0.15,0.13 l -0.35,0.57 c -0.29,-0.29 -0.7,-0.7 -1.59,-0.7 -1.1,0 -1.94,0.88 -1.94,1.93 0,0.82 0.53,1.55 1.31,1.82 0.11,0.04 0.61,0.16 1.31,0.32 0.27,0.07 0.57,0.14 0.85,0.51 0.2,0.26 0.3,0.59 0.3,0.92 0,0.7 -0.49,1.42 -1.33,1.42 -0.29,0 -1.04,-0.05 -1.57,-0.54 -0.58,-0.54 -0.61,-1.17 -0.62,-1.53 -0.01,-0.1 -0.09,-0.1 -0.12,-0.1 -0.13,0 -0.13,0.07 -0.13,0.25 l 0,1.99 c 0,0.16 0,0.23 0.11,0.23 0.07,0 0.08,-0.02 0.15,-0.13 0,-0.01 0.03,-0.03 0.36,-0.56 0.31,0.34 0.94,0.69 1.83,0.69 1.16,0 1.96,-0.97 1.96,-2.06 0,-1 -0.66,-1.81 -1.49,-2.01 z"
         id="path4463" />
      <path
         style="font-style:normal;font-variant:normal;font-weight:normal;font-stretch:normal;letter-spacing:normal;word-spacing:normal;text-anchor:start;fill:#000000;fill-opacity:1;fill-rule:evenodd;stroke:#000000;stroke-width:0;stroke-linecap:butt;stroke-linejoin:miter;stroke-miterlimit:10.43299961;stroke-dasharray:none;stroke-dashoffset:0;stroke-opacity:1"
         inkscape:connector-curvature="0"
         d="m 301.23859,98.25042 -1.39,0.11 0,0.31 c 0.65,0 0.74,0.06 0.74,0.55 l 0,2.67 c 0,0.45 -0.11,0.45 -0.78,0.45 l 0,0.3 c 0.32,0 0.86,-0.02 1.09,-0.02 0.35,0 0.7,0.02 1.04,0.02 l 0,-0.3 c -0.66,0 -0.7,-0.05 -0.7,-0.44 z"
         id="path4465" />
      <path
         style="font-style:normal;font-variant:normal;font-weight:normal;font-stretch:normal;letter-spacing:normal;word-spacing:normal;text-anchor:start;fill:#000000;fill-opacity:1;fill-rule:evenodd;stroke:#000000;stroke-width:0;stroke-linecap:butt;stroke-linejoin:miter;stroke-miterlimit:10.43299961;stroke-dasharray:none;stroke-dashoffset:0;stroke-opacity:1"
         inkscape:connector-curvature="0"
         d="m 301.27859,96.53042 0,-0.03 0,-0.03 0,-0.03 -0.01,-0.03 -0.01,-0.02 0,-0.03 -0.01,-0.03 -0.01,-0.02 -0.01,-0.02 -0.01,-0.03 -0.02,-0.02 -0.01,-0.02 -0.02,-0.02 -0.01,-0.02 -0.02,-0.02 -0.02,-0.02 -0.02,-0.01 -0.02,-0.02 -0.02,-0.01 -0.02,-0.02 -0.02,-0.01 -0.02,-0.01 -0.02,-0.01 -0.03,-0.01 -0.02,-0.01 -0.02,-0.01 -0.03,-0.01 -0.02,0 -0.03,-0.01 -0.02,0 -0.03,0 -0.03,0 c -0.3,0 -0.52,0.27 -0.52,0.53 0,0.26 0.22,0.52 0.52,0.52 0.28,0 0.53,-0.21 0.53,-0.52 z"
         id="path4467" />
      <path
         style="font-style:normal;font-variant:normal;font-weight:normal;font-stretch:normal;letter-spacing:normal;word-spacing:normal;text-anchor:start;fill:#000000;fill-opacity:1;fill-rule:evenodd;stroke:#000000;stroke-width:0;stroke-linecap:butt;stroke-linejoin:miter;stroke-miterlimit:10.43299961;stroke-dasharray:none;stroke-dashoffset:0;stroke-opacity:1"
         inkscape:connector-curvature="0"
         d="m 303.33859,99.23042 0,2.66 c 0,0.45 -0.11,0.45 -0.77,0.45 l 0,0.3 c 0.35,0 0.85,-0.02 1.12,-0.02 0.26,0 0.78,0.02 1.12,0.02 l 0,-0.3 c -0.67,0 -0.78,0 -0.78,-0.45 l 0,-1.83 c 0,-1.03 0.71,-1.59 1.34,-1.59 0.63,0 0.74,0.54 0.74,1.11 l 0,2.31 c 0,0.45 -0.11,0.45 -0.78,0.45 l 0,0.3 c 0.35,0 0.86,-0.02 1.13,-0.02 0.26,0 0.77,0.02 1.11,0.02 l 0,-0.3 c -0.66,0 -0.77,0 -0.77,-0.45 l 0,-1.83 c 0,-1.03 0.7,-1.59 1.34,-1.59 0.63,0 0.73,0.54 0.73,1.11 l 0,2.31 c 0,0.45 -0.1,0.45 -0.77,0.45 l 0,0.3 c 0.35,0 0.85,-0.02 1.12,-0.02 0.26,0 0.78,0.02 1.12,0.02 l 0,-0.3 c -0.52,0 -0.77,0 -0.78,-0.3 l 0,-1.9 c 0,-0.85 0,-1.16 -0.31,-1.52 -0.14,-0.17 -0.47,-0.37 -1.04,-0.37 -0.84,0 -1.27,0.6 -1.44,0.98 -0.14,-0.87 -0.88,-0.98 -1.33,-0.98 -0.72,0 -1.19,0.43 -1.47,1.05 l 0,-1.05 -1.4,0.11 0,0.31 c 0.69,0 0.77,0.07 0.77,0.56 z"
         id="path4469" />
      <path
         style="font-style:normal;font-variant:normal;font-weight:normal;font-stretch:normal;letter-spacing:normal;word-spacing:normal;text-anchor:start;fill:#000000;fill-opacity:1;fill-rule:evenodd;stroke:#000000;stroke-width:0;stroke-linecap:butt;stroke-linejoin:miter;stroke-miterlimit:10.43299961;stroke-dasharray:none;stroke-dashoffset:0;stroke-opacity:1"
         inkscape:connector-curvature="0"
         d="m 314.15859,101.86042 0,0.89 1.43,-0.11 0,-0.3 c -0.69,0 -0.77,-0.07 -0.77,-0.56 l 0,-3.53 -1.46,0.11 0,0.31 c 0.69,0 0.77,0.07 0.77,0.56 l 0,1.77 c 0,0.86 -0.48,1.54 -1.2,1.54 -0.84,0 -0.88,-0.47 -0.88,-0.99 l 0,-3.3 -1.46,0.11 0,0.31 c 0.78,0 0.78,0.03 0.78,0.91 l 0,1.5 c 0,0.77 0,1.67 1.51,1.67 0.56,0 0.99,-0.27 1.28,-0.89 z"
         id="path4471" />
      <path
         style="font-style:normal;font-variant:normal;font-weight:normal;font-stretch:normal;letter-spacing:normal;word-spacing:normal;text-anchor:start;fill:#000000;fill-opacity:1;fill-rule:evenodd;stroke:#000000;stroke-width:0;stroke-linecap:butt;stroke-linejoin:miter;stroke-miterlimit:10.43299961;stroke-dasharray:none;stroke-dashoffset:0;stroke-opacity:1"
         inkscape:connector-curvature="0"
         d="m 317.56859,95.75042 -1.43,0.11 0,0.31 c 0.69,0 0.77,0.07 0.77,0.55 l 0,5.17 c 0,0.45 -0.11,0.45 -0.77,0.45 l 0,0.3 c 0.32,0 0.85,-0.02 1.1,-0.02 0.25,0 0.74,0.02 1.1,0.02 l 0,-0.3 c -0.66,0 -0.77,0 -0.77,-0.45 z"
         id="path4473" />
      <path
         style="font-style:normal;font-variant:normal;font-weight:normal;font-stretch:normal;letter-spacing:normal;word-spacing:normal;text-anchor:start;fill:#000000;fill-opacity:1;fill-rule:evenodd;stroke:#000000;stroke-width:0;stroke-linecap:butt;stroke-linejoin:miter;stroke-miterlimit:10.43299961;stroke-dasharray:none;stroke-dashoffset:0;stroke-opacity:1"
         inkscape:connector-curvature="0"
         d="m 321.88859,101.89042 0,0.04 0.01,0.03 0.01,0.04 0,0.04 0.01,0.04 0.01,0.03 0.02,0.04 0.01,0.03 0.01,0.04 0.02,0.03 0.02,0.04 0.02,0.03 0.02,0.03 0.02,0.04 0.02,0.03 0.03,0.03 0.02,0.02 0.03,0.03 0.02,0.03 0.03,0.02 0.03,0.02 0.03,0.03 0.04,0.02 0.03,0.01 0.04,0.02 0.03,0.01 0.04,0.02 0.04,0.01 0.04,0 0.04,0.01 0.04,0 0.04,0 c 0.21,0 0.82,-0.13 0.82,-0.94 l 0,-0.56 -0.25,0 0,0.56 c 0,0.58 -0.25,0.64 -0.36,0.64 -0.33,0 -0.37,-0.45 -0.37,-0.5 l 0,-1.99 c 0,-0.41 0,-0.8 -0.35,-1.17 -0.39,-0.39 -0.89,-0.54 -1.37,-0.54 -0.81,0 -1.5,0.46 -1.5,1.12 0,0.3 0.2,0.46 0.46,0.46 0.28,0 0.46,-0.2 0.46,-0.45 0,-0.12 -0.05,-0.45 -0.51,-0.46 0.27,-0.35 0.76,-0.46 1.07,-0.46 0.49,0 1.06,0.39 1.06,1.28 l 0,0.36 0,0.21 0,0.99 c 0,0.95 -0.72,1.29 -1.17,1.29 -0.48,0 -0.89,-0.35 -0.89,-0.85 0,-0.55 0.42,-1.37 2.06,-1.43 l 0,0 0,-0.21 c -0.51,0.03 -1.21,0.06 -1.83,0.36 -0.75,0.34 -1,0.85 -1,1.29 0,0.81 0.97,1.05 1.59,1.05 0.66,0 1.12,-0.39 1.31,-0.86 z"
         id="path4475" />
      <path
         style="font-style:normal;font-variant:normal;font-weight:normal;font-stretch:normal;letter-spacing:normal;word-spacing:normal;text-anchor:start;fill:#000000;fill-opacity:1;fill-rule:evenodd;stroke:#000000;stroke-width:0;stroke-linecap:butt;stroke-linejoin:miter;stroke-miterlimit:10.43299961;stroke-dasharray:none;stroke-dashoffset:0;stroke-opacity:1"
         inkscape:connector-curvature="0"
         d="m 325.27859,98.67042 1.42,0 0,-0.31 -1.42,0 0,-1.82 -0.25,0 c -0.01,0.81 -0.31,1.87 -1.29,1.91 l 0,0.22 0.85,0 0,2.74 c 0,1.23 0.93,1.34 1.28,1.34 0.71,0 0.99,-0.7 0.99,-1.34 l 0,-0.56 -0.25,0 0,0.54 c 0,0.74 -0.3,1.12 -0.67,1.12 -0.66,0 -0.66,-0.91 -0.66,-1.08 z"
         id="path4477" />
      <path
         style="font-style:normal;font-variant:normal;font-weight:normal;font-stretch:normal;letter-spacing:normal;word-spacing:normal;text-anchor:start;fill:#000000;fill-opacity:1;fill-rule:evenodd;stroke:#000000;stroke-width:0;stroke-linecap:butt;stroke-linejoin:miter;stroke-miterlimit:10.43299961;stroke-dasharray:none;stroke-dashoffset:0;stroke-opacity:1"
         inkscape:connector-curvature="0"
         d="m 329.18859,98.25042 -1.39,0.11 0,0.31 c 0.65,0 0.73,0.06 0.73,0.55 l 0,2.67 c 0,0.45 -0.1,0.45 -0.77,0.45 l 0,0.3 c 0.32,0 0.85,-0.02 1.09,-0.02 0.35,0 0.7,0.02 1.04,0.02 l 0,-0.3 c -0.66,0 -0.7,-0.05 -0.7,-0.44 z"
         id="path4479" />
      <path
         style="font-style:normal;font-variant:normal;font-weight:normal;font-stretch:normal;letter-spacing:normal;word-spacing:normal;text-anchor:start;fill:#000000;fill-opacity:1;fill-rule:evenodd;stroke:#000000;stroke-width:0;stroke-linecap:butt;stroke-linejoin:miter;stroke-miterlimit:10.43299961;stroke-dasharray:none;stroke-dashoffset:0;stroke-opacity:1"
         inkscape:connector-curvature="0"
         d="m 329.22859,96.53042 0,-0.03 0,-0.03 -0.01,-0.03 0,-0.03 -0.01,-0.02 0,-0.03 -0.01,-0.03 -0.01,-0.02 -0.01,-0.02 -0.02,-0.03 -0.01,-0.02 -0.01,-0.02 -0.02,-0.02 -0.01,-0.02 -0.02,-0.02 -0.02,-0.02 -0.02,-0.01 -0.02,-0.02 -0.02,-0.01 -0.02,-0.02 -0.02,-0.01 -0.02,-0.01 -0.02,-0.01 -0.03,-0.01 -0.02,-0.01 -0.02,-0.01 -0.03,-0.01 -0.02,0 -0.03,-0.01 -0.02,0 -0.03,0 -0.03,0 c -0.3,0 -0.52,0.27 -0.52,0.53 0,0.26 0.22,0.52 0.52,0.52 0.28,0 0.53,-0.21 0.53,-0.52 z"
         id="path4481" />
      <path
         style="font-style:normal;font-variant:normal;font-weight:normal;font-stretch:normal;letter-spacing:normal;word-spacing:normal;text-anchor:start;fill:#000000;fill-opacity:1;fill-rule:evenodd;stroke:#000000;stroke-width:0;stroke-linecap:butt;stroke-linejoin:miter;stroke-miterlimit:10.43299961;stroke-dasharray:none;stroke-dashoffset:0;stroke-opacity:1"
         inkscape:connector-curvature="0"
         d="m 334.87859,100.52042 0,-0.12 -0.01,-0.12 -0.01,-0.11 -0.02,-0.12 -0.03,-0.11 -0.03,-0.11 -0.03,-0.11 -0.04,-0.1 -0.04,-0.1 -0.05,-0.1 -0.06,-0.1 -0.05,-0.09 -0.07,-0.1 -0.06,-0.08 -0.07,-0.09 -0.07,-0.08 -0.08,-0.08 -0.08,-0.07 -0.08,-0.07 -0.09,-0.06 -0.09,-0.07 -0.09,-0.05 -0.1,-0.05 -0.09,-0.05 -0.1,-0.04 -0.1,-0.04 -0.11,-0.03 -0.1,-0.03 -0.11,-0.02 -0.11,-0.01 -0.11,-0.01 -0.12,0 0,0.21 c 0.43,0 0.86,0.22 1.12,0.65 0.26,0.43 0.26,1 0.26,1.38 0,0.36 0,0.89 -0.22,1.33 -0.22,0.45 -0.66,0.74 -1.16,0.74 l 0,0 c -0.42,0 -0.86,-0.21 -1.13,-0.67 -0.25,-0.44 -0.25,-1.04 -0.25,-1.4 0,-0.39 0,-0.92 0.24,-1.36 0.27,-0.46 0.74,-0.67 1.14,-0.67 l 0,-0.21 c -1.24,0 -2.2,1.08 -2.2,2.32 0,1.28 1.03,2.23 2.2,2.23 1.2,0 2.2,-0.97 2.2,-2.23 z"
         id="path4483" />
      <path
         style="font-style:normal;font-variant:normal;font-weight:normal;font-stretch:normal;letter-spacing:normal;word-spacing:normal;text-anchor:start;fill:#000000;fill-opacity:1;fill-rule:evenodd;stroke:#000000;stroke-width:0;stroke-linecap:butt;stroke-linejoin:miter;stroke-miterlimit:10.43299961;stroke-dasharray:none;stroke-dashoffset:0;stroke-opacity:1"
         inkscape:connector-curvature="0"
         d="m 336.26859,99.23042 0,2.66 c 0,0.45 -0.11,0.45 -0.77,0.45 l 0,0.3 c 0.35,0 0.85,-0.02 1.12,-0.02 0.26,0 0.78,0.02 1.12,0.02 l 0,-0.3 c -0.67,0 -0.78,0 -0.78,-0.45 l 0,-1.83 c 0,-1.03 0.71,-1.59 1.34,-1.59 0.63,0 0.74,0.54 0.74,1.11 l 0,2.31 c 0,0.45 -0.11,0.45 -0.78,0.45 l 0,0.3 c 0.35,0 0.86,-0.02 1.13,-0.02 0.26,0 0.77,0.02 1.11,0.02 l 0,-0.3 c -0.51,0 -0.76,0 -0.77,-0.3 l 0,-1.9 c 0,-0.85 0,-1.16 -0.31,-1.52 -0.14,-0.17 -0.47,-0.37 -1.05,-0.37 -0.72,0 -1.19,0.43 -1.47,1.05 l 0,-1.05 -1.4,0.11 0,0.31 c 0.69,0 0.77,0.07 0.77,0.56 z"
         id="path4485" />
      <path
         style="font-style:normal;font-variant:normal;font-weight:normal;font-stretch:normal;letter-spacing:normal;word-spacing:normal;text-anchor:start;fill:#000000;fill-opacity:1;fill-rule:evenodd;stroke:#000000;stroke-width:0;stroke-linecap:butt;stroke-linejoin:miter;stroke-miterlimit:10.43299961;stroke-dasharray:none;stroke-dashoffset:0;stroke-opacity:1"
         inkscape:connector-curvature="0"
         d="m 346.91859,99.15042 0.07,-0.03 0.08,-0.03 0.07,-0.03 0.07,-0.03 0.07,-0.04 0.07,-0.04 0.06,-0.04 0.07,-0.04 0.06,-0.04 0.06,-0.05 0.06,-0.05 0.06,-0.05 0.05,-0.05 0.05,-0.05 0.05,-0.06 0.05,-0.05 0.04,-0.06 0.05,-0.06 0.04,-0.06 0.03,-0.06 0.04,-0.07 0.03,-0.06 0.03,-0.07 0.03,-0.06 0.02,-0.07 0.02,-0.07 0.02,-0.07 0.01,-0.07 0.02,-0.07 0,-0.07 0.01,-0.08 0,-0.07 c 0,-0.82 -0.88,-1.37 -1.83,-1.37 -1.01,0 -1.76,0.6 -1.76,1.35 0,0.33 0.22,0.52 0.51,0.52 0.3,0 0.5,-0.22 0.5,-0.51 0,-0.5 -0.46,-0.5 -0.61,-0.5 0.31,-0.48 0.96,-0.61 1.32,-0.61 0.41,0 0.96,0.22 0.96,1.11 0,0.12 -0.03,0.69 -0.28,1.13 -0.3,0.48 -0.64,0.51 -0.89,0.52 -0.08,0.01 -0.32,0.03 -0.39,0.03 -0.08,0.01 -0.15,0.02 -0.15,0.12 0,0.11 0.07,0.11 0.24,0.11 l 0.44,0 c 0.82,0 1.18,0.67 1.18,1.65 0,1.35 -0.68,1.63 -1.12,1.63 -0.43,0 -1.17,-0.16 -1.52,-0.75 0.35,0.05 0.65,-0.17 0.65,-0.55 0,-0.35 -0.26,-0.55 -0.55,-0.55 -0.24,0 -0.56,0.14 -0.56,0.57 0,0.91 0.92,1.56 2.01,1.56 1.21,0 2.12,-0.9 2.12,-1.91 0,-0.82 -0.63,-1.59 -1.66,-1.8 z"
         id="path4487" />
    </g>
    <g
       ns0:preamble=""
       ns0:text="\\}"
       word-spacing="normal"
       letter-spacing="normal"
       font-size-adjust="none"
       font-stretch="normal"
       font-weight="normal"
       font-variant="normal"
       font-style="normal"
       stroke-miterlimit="10.433"
       xml:space="preserve"
       transform="matrix(0,-3.1462025,-11.463499,0,8363.9086,839.30018)"
       id="content"
       style="font-style:normal;font-variant:normal;font-weight:normal;font-stretch:normal;letter-spacing:normal;word-spacing:normal;text-anchor:start;fill:none;fill-opacity:1;fill-rule:evenodd;stroke:#000000;stroke-linecap:butt;stroke-linejoin:miter;stroke-miterlimit:10.43299961;stroke-dasharray:none;stroke-dashoffset:0;stroke-opacity:1"><path
         id="path4754"
         d="m 225.58,705.96 0,-0.03 0,-0.04 -0.01,-0.04 0,-0.05 -0.01,-0.04 -0.01,-0.04 -0.01,-0.04 -0.02,-0.05 -0.01,-0.04 -0.02,-0.05 -0.02,-0.04 -0.03,-0.04 -0.03,-0.05 -0.03,-0.04 -0.03,-0.04 -0.03,-0.04 -0.04,-0.04 -0.05,-0.04 -0.04,-0.04 -0.05,-0.04 -0.05,-0.03 -0.06,-0.03 -0.06,-0.03 -0.06,-0.03 -0.07,-0.03 -0.08,-0.03 -0.07,-0.02 -0.08,-0.02 -0.05,-0.01 -0.04,-0.01 -0.04,0 -0.05,-0.01 -0.04,-0.01 -0.05,0 -0.05,-0.01 -0.05,0 c -0.05,-0.01 -0.09,-0.05 -0.09,-0.11 0,-0.11 0.11,-0.11 0.2,-0.11 0.96,0 1.89,0.49 1.9,1.24 l 0,2.27 c 0,0.39 0,0.7 0.4,1.03 0.34,0.29 0.72,0.31 0.94,0.32 0.05,0.01 0.09,0.05 0.09,0.11 0,0.1 -0.06,0.1 -0.16,0.11 -0.66,0.04 -1.13,0.39 -1.24,0.88 -0.03,0.11 -0.03,0.13 -0.03,0.49 l 0,1.96 c 0,0.42 0,0.74 -0.48,1.12 -0.4,0.31 -1.08,0.41 -1.42,0.41 -0.09,0 -0.2,0 -0.2,-0.11 0,-0.1 0.06,-0.1 0.16,-0.11 0.62,-0.04 1.11,-0.36 1.24,-0.87 0.03,-0.09 0.03,-0.11 0.03,-0.46 l 0,-2.09 c 0,-0.46 0.08,-0.63 0.4,-0.94 0.21,-0.21 0.5,-0.31 0.78,-0.39 -0.82,-0.23 -1.18,-0.69 -1.18,-1.26 z"
         inkscape:connector-curvature="0"
         style="fill:#000000;stroke-width:0" /></g>    <g
       style="font-style:normal;font-variant:normal;font-weight:normal;font-stretch:normal;letter-spacing:normal;word-spacing:normal;text-anchor:start;fill:none;fill-opacity:1;fill-rule:evenodd;stroke:#000000;stroke-linecap:butt;stroke-linejoin:miter;stroke-miterlimit:10.43299961;stroke-dasharray:none;stroke-dashoffset:0;stroke-opacity:1"
       id="g4848"
       transform="matrix(0,-3.1462025,-11.463499,0,8478.6056,839.30018)"
       xml:space="preserve"
       stroke-miterlimit="10.433"
       font-style="normal"
       font-variant="normal"
       font-weight="normal"
       font-stretch="normal"
       font-size-adjust="none"
       letter-spacing="normal"
       word-spacing="normal"
       ns0:text="\\}"
       ns0:preamble=""><path
         style="fill:#000000;stroke-width:0"
         inkscape:connector-curvature="0"
         d="m 225.58,705.96 0,-0.03 0,-0.04 -0.01,-0.04 0,-0.05 -0.01,-0.04 -0.01,-0.04 -0.01,-0.04 -0.02,-0.05 -0.01,-0.04 -0.02,-0.05 -0.02,-0.04 -0.03,-0.04 -0.03,-0.05 -0.03,-0.04 -0.03,-0.04 -0.03,-0.04 -0.04,-0.04 -0.05,-0.04 -0.04,-0.04 -0.05,-0.04 -0.05,-0.03 -0.06,-0.03 -0.06,-0.03 -0.06,-0.03 -0.07,-0.03 -0.08,-0.03 -0.07,-0.02 -0.08,-0.02 -0.05,-0.01 -0.04,-0.01 -0.04,0 -0.05,-0.01 -0.04,-0.01 -0.05,0 -0.05,-0.01 -0.05,0 c -0.05,-0.01 -0.09,-0.05 -0.09,-0.11 0,-0.11 0.11,-0.11 0.2,-0.11 0.96,0 1.89,0.49 1.9,1.24 l 0,2.27 c 0,0.39 0,0.7 0.4,1.03 0.34,0.29 0.72,0.31 0.94,0.32 0.05,0.01 0.09,0.05 0.09,0.11 0,0.1 -0.06,0.1 -0.16,0.11 -0.66,0.04 -1.13,0.39 -1.24,0.88 -0.03,0.11 -0.03,0.13 -0.03,0.49 l 0,1.96 c 0,0.42 0,0.74 -0.48,1.12 -0.4,0.31 -1.08,0.41 -1.42,0.41 -0.09,0 -0.2,0 -0.2,-0.11 0,-0.1 0.06,-0.1 0.16,-0.11 0.62,-0.04 1.11,-0.36 1.24,-0.87 0.03,-0.09 0.03,-0.11 0.03,-0.46 l 0,-2.09 c 0,-0.46 0.08,-0.63 0.4,-0.94 0.21,-0.21 0.5,-0.31 0.78,-0.39 -0.82,-0.23 -1.18,-0.69 -1.18,-1.26 z"
         id="path4850" /></g>    <g
       ns0:preamble=""
       ns0:text="\\}"
       word-spacing="normal"
       letter-spacing="normal"
       font-size-adjust="none"
       font-stretch="normal"
       font-weight="normal"
       font-variant="normal"
       font-style="normal"
       stroke-miterlimit="10.433"
       xml:space="preserve"
       transform="matrix(0,-3.1462025,-11.463499,0,8593.3025,839.30018)"
       id="g4852"
       style="font-style:normal;font-variant:normal;font-weight:normal;font-stretch:normal;letter-spacing:normal;word-spacing:normal;text-anchor:start;fill:none;fill-opacity:1;fill-rule:evenodd;stroke:#000000;stroke-linecap:butt;stroke-linejoin:miter;stroke-miterlimit:10.43299961;stroke-dasharray:none;stroke-dashoffset:0;stroke-opacity:1"><path
         id="path4854"
         d="m 225.58,705.96 0,-0.03 0,-0.04 -0.01,-0.04 0,-0.05 -0.01,-0.04 -0.01,-0.04 -0.01,-0.04 -0.02,-0.05 -0.01,-0.04 -0.02,-0.05 -0.02,-0.04 -0.03,-0.04 -0.03,-0.05 -0.03,-0.04 -0.03,-0.04 -0.03,-0.04 -0.04,-0.04 -0.05,-0.04 -0.04,-0.04 -0.05,-0.04 -0.05,-0.03 -0.06,-0.03 -0.06,-0.03 -0.06,-0.03 -0.07,-0.03 -0.08,-0.03 -0.07,-0.02 -0.08,-0.02 -0.05,-0.01 -0.04,-0.01 -0.04,0 -0.05,-0.01 -0.04,-0.01 -0.05,0 -0.05,-0.01 -0.05,0 c -0.05,-0.01 -0.09,-0.05 -0.09,-0.11 0,-0.11 0.11,-0.11 0.2,-0.11 0.96,0 1.89,0.49 1.9,1.24 l 0,2.27 c 0,0.39 0,0.7 0.4,1.03 0.34,0.29 0.72,0.31 0.94,0.32 0.05,0.01 0.09,0.05 0.09,0.11 0,0.1 -0.06,0.1 -0.16,0.11 -0.66,0.04 -1.13,0.39 -1.24,0.88 -0.03,0.11 -0.03,0.13 -0.03,0.49 l 0,1.96 c 0,0.42 0,0.74 -0.48,1.12 -0.4,0.31 -1.08,0.41 -1.42,0.41 -0.09,0 -0.2,0 -0.2,-0.11 0,-0.1 0.06,-0.1 0.16,-0.11 0.62,-0.04 1.11,-0.36 1.24,-0.87 0.03,-0.09 0.03,-0.11 0.03,-0.46 l 0,-2.09 c 0,-0.46 0.08,-0.63 0.4,-0.94 0.21,-0.21 0.5,-0.31 0.78,-0.39 -0.82,-0.23 -1.18,-0.69 -1.18,-1.26 z"
         inkscape:connector-curvature="0"
         style="fill:#000000;stroke-width:0" /></g>  </g>
</svg>
